<?xml version="1.0" encoding="UTF-8" standalone="no"?>
<!-- Created with Inkscape (http://www.inkscape.org/) -->

<svg
   xmlns:dc="http://purl.org/dc/elements/1.1/"
   xmlns:cc="http://creativecommons.org/ns#"
   xmlns:rdf="http://www.w3.org/1999/02/22-rdf-syntax-ns#"
   xmlns:svg="http://www.w3.org/2000/svg"
   xmlns="http://www.w3.org/2000/svg"
   xmlns:xlink="http://www.w3.org/1999/xlink"
   xmlns:sodipodi="http://sodipodi.sourceforge.net/DTD/sodipodi-0.dtd"
   xmlns:inkscape="http://www.inkscape.org/namespaces/inkscape"
   width="1000"
   height="1000"
   id="svg2"
   version="1.1"
   inkscape:version="0.48.2 r9819"
   sodipodi:docname="New document 1">
  <defs
     id="defs4">
    <linearGradient
       id="linearGradient3002">
      <stop
         style="stop-color:#e48722;stop-opacity:1"
         offset="0"
         id="stop3004" />
      <stop
         id="stop3026"
         offset="0.1"
         style="stop-color:#e48722;stop-opacity:1" />
      <stop
         id="stop3024"
         offset="0.2"
         style="stop-color:#d88c29;stop-opacity:1" />
      <stop
         id="stop3020"
         offset="0.30000001"
         style="stop-color:#c19643;stop-opacity:1" />
      <stop
         style="stop-color:#aba065;stop-opacity:1"
         offset="0.40000001"
         id="stop3022" />
      <stop
         id="stop3018"
         offset="0.5"
         style="stop-color:#97a88a;stop-opacity:1" />
      <stop
         id="stop3016"
         offset="0.60000002"
         style="stop-color:#77a7a0;stop-opacity:1" />
      <stop
         id="stop3014"
         offset="0.69999999"
         style="stop-color:#5da4b3;stop-opacity:1" />
      <stop
         id="stop3012"
         offset="0.80000001"
         style="stop-color:#4ca2ca;stop-opacity:1" />
      <stop
         id="stop3010"
         offset="0.89999998"
         style="stop-color:#489fdd;stop-opacity:1" />
      <stop
         style="stop-color:#49a0de;stop-opacity:1"
         offset="1"
         id="stop3006" />
    </linearGradient>
    <linearGradient
       inkscape:collect="always"
       xlink:href="#linearGradient3002"
       id="linearGradient3008"
       x1="-640.00183"
       y1="-475.38651"
       x2="-575.00616"
       y2="-475.38651"
       gradientUnits="userSpaceOnUse" />
    <linearGradient
       inkscape:collect="always"
       xlink:href="#linearGradient3002"
       id="linearGradient3032"
       gradientUnits="userSpaceOnUse"
       x1="-640.00183"
       y1="-475.38651"
       x2="-575.00616"
       y2="-475.38651" />
  </defs>
  <sodipodi:namedview
     id="base"
     pagecolor="#ffffff"
     bordercolor="#666666"
     borderopacity="1.0"
     inkscape:pageopacity="0.0"
     inkscape:pageshadow="2"
     inkscape:zoom="0.175"
     inkscape:cx="2008.6392"
     inkscape:cy="181.15446"
     inkscape:document-units="px"
     inkscape:current-layer="layer1"
     showgrid="false"
     fit-margin-left="0.5"
     fit-margin-bottom="0.5"
     fit-margin-top="0.5"
     fit-margin-right="0.5"
     inkscape:window-width="1287"
     inkscape:window-height="1037"
     inkscape:window-x="626"
     inkscape:window-y="-21"
     inkscape:window-maximized="0">
    <inkscape:grid
       type="xygrid"
       id="grid2996"
       empspacing="5"
       visible="true"
       enabled="true"
       snapvisiblegridlinesonly="true" />
  </sodipodi:namedview>
  <metadata
     id="metadata7">
    <rdf:RDF>
      <cc:Work
         rdf:about="">
        <dc:format>image/svg+xml</dc:format>
        <dc:type
           rdf:resource="http://purl.org/dc/dcmitype/StillImage" />
        <dc:title></dc:title>
      </cc:Work>
    </rdf:RDF>
  </metadata>
  <g
     inkscape:label="Layer 1"
     inkscape:groupmode="layer"
     id="layer1"
     transform="translate(640.50164,-367.77328)">
    <g
       id="g3028"
       transform="matrix(0.53282543,0,0,0.53282543,-298.99249,638.7553)">
      <path
         transform="matrix(0,-28.844777,28.844777,0,14002.698,-17093.384)"
         d="m -575,-475.13782 c 0,17.94926 -14.55075,32.5 -32.5,32.5 -17.94925,0 -32.5,-14.55074 -32.5,-32.5 0,-17.94925 14.55075,-32.5 32.5,-32.5 17.94925,0 32.5,14.55075 32.5,32.5 z"
         sodipodi:ry="32.5"
         sodipodi:rx="32.5"
         sodipodi:cy="-475.13782"
         sodipodi:cx="-607.5"
         id="path3000"
         style="fill:url(#linearGradient3032);fill-opacity:1;stroke:none"
         sodipodi:type="arc" />
      <path
         sodipodi:nodetypes="ccccccccccccccccccccccccccc"
         inkscape:connector-curvature="0"
         id="path2998"
         d="m -336,706.36218 76,0 104,-374 -180,0 290,-396.999997 268,0 L 14,706.36218 c 313.40619,12.95903 661.03444,-198.60736 661.03444,-498.48753 0,-152.493852 -71.82578,-206.3867894 -162.00321,-206.3867894 -66.75468,0 -142.03691,37.3141164 -206.89187,113.0108194 l 3.8512,6.62912 c 0.70418,1.41516 2.26508,2.77792 3.4724,2.77792 1.8076,0 3.17752,-1.57825 4.48255,-2.39911 26.64777,-19.34574 48.91575,-23.233508 82.57997,-23.233508 94.88708,0 128.92072,62.480758 128.92072,119.955618 0,95.82545 -74.3599,154.11139 -168.31666,154.11139 -85.10436,0 -145.05811,-49.51494 -145.05811,-143.01364 0,-68.96991 22.38534,-156.271123 79.86896,-212.827855 53.69555,-51.253431 147.62313,-83.32232 293.48362,-83.32232 275.71702,0 370.03151,138.033081 370.03151,299.068285 0,199.10502 -228.17169,325.65675 -414.45552,408.1176 l 198.03572,-1.75 c 86.77087,0 128.28194,-29.60996 182.5,-103.30357 l 56.5625,-0.66964 C 927.28194,646.46817 882.74762,756.82851 837,867.36218 l -1224,0 z"
         style="fill:#ffffff;stroke:none" />
    </g>
  </g>
</svg>
