<?xml version="1.0" encoding="utf-8"?>
<!-- Generator: Adobe Illustrator 22.1.0, SVG Export Plug-In . SVG Version: 6.00 Build 0)  -->
<svg version="1.1" id="Layer_1" xmlns="http://www.w3.org/2000/svg" xmlns:xlink="http://www.w3.org/1999/xlink" x="0px" y="0px"
	 viewBox="0 0 179.7 71" style="enable-background:new 0 0 179.7 71;" xml:space="preserve">
<style type="text/css">
	.st0{fill:#007534;}
	.st1{fill:#E31837;}
	.st2{fill:url(#SVGID_1_);}
	.st3{fill:url(#SVGID_2_);}
	.st4{fill:url(#SVGID_3_);}
	.st5{fill:url(#SVGID_4_);}
	.st6{fill:url(#SVGID_5_);}
</style>
<g>
	<g>
		<g>
			<path class="st0" d="M132.6,41.8c-0.3,0.5-0.4,1-0.4,1.5c0,0.2,0.1,0.5,0.1,0.7c0.2,0.7,0.7,1.4,1.4,1.7c0.7,0.4,1.5,0.5,2.2,0.3
				c0.8-0.2,1.4-0.7,1.8-1.4c0.4-0.7,0.5-1.5,0.3-2.2c-0.2-0.8-0.7-1.4-1.4-1.8C135.1,39.9,133.4,40.4,132.6,41.8z"/>
			<path class="st0" d="M131.4,41.2c-0.4,0.6-0.5,1.3-0.6,2c0,0.1,0,0.1,0,0.2l0.1,1c0.3,1.1,1,2,2,2.6c1,0.6,2.1,0.7,3.2,0.4
				c1.1-0.3,2-1,2.6-2s0.7-2.1,0.4-3.2s-1-2-2-2.6C135.2,38.4,132.6,39.1,131.4,41.2z M133.5,43.3c0-0.3,0.1-0.6,0.2-0.8l0,0
				c0.4-0.8,1.4-1,2.1-0.6c0.4,0.2,0.6,0.6,0.8,0.9c0.1,0.4,0.1,0.8-0.1,1.2c-0.2,0.4-0.6,0.6-1,0.8c-0.4,0.1-0.8,0.1-1.2-0.2
				c-0.4-0.2-0.6-0.6-0.8-1L133.5,43.3z M131.4,41.2C131.4,41.2,131.4,41.2,131.4,41.2C131.4,41.2,131.4,41.2,131.4,41.2z"/>
		</g>
		<g>
			<path class="st0" d="M132.6,41.8c-0.3,0.5-0.4,1-0.4,1.5c0,0.2,0.1,0.5,0.1,0.7c0.2,0.7,0.7,1.4,1.4,1.7c0.7,0.4,1.5,0.5,2.2,0.3
				c0.8-0.2,1.4-0.7,1.8-1.4c0.4-0.7,0.5-1.5,0.3-2.2c-0.2-0.8-0.7-1.4-1.4-1.8C135.1,39.9,133.4,40.4,132.6,41.8z"/>
			<path class="st1" d="M131.4,41.2c-0.4,0.6-0.5,1.3-0.6,2c0,0.1,0,0.1,0,0.2l0.1,1c0.3,1.1,1,2,2,2.6c1,0.6,2.1,0.7,3.2,0.4
				c1.1-0.3,2-1,2.6-2s0.7-2.1,0.4-3.2s-1-2-2-2.6C135.2,38.4,132.6,39.1,131.4,41.2z M133.5,43.3c0-0.3,0.1-0.6,0.2-0.8l0,0
				c0.4-0.8,1.4-1,2.1-0.6c0.4,0.2,0.6,0.6,0.8,0.9c0.1,0.4,0.1,0.8-0.1,1.2c-0.2,0.4-0.6,0.6-1,0.8c-0.4,0.1-0.8,0.1-1.2-0.2
				c-0.4-0.2-0.6-0.6-0.8-1L133.5,43.3z M131.4,41.2C131.4,41.2,131.4,41.2,131.4,41.2C131.4,41.2,131.4,41.2,131.4,41.2z"/>
		</g>
		
			<linearGradient id="SVGID_1_" gradientUnits="userSpaceOnUse" x1="140.6864" y1="37.9654" x2="145.0883" y2="37.9654" gradientTransform="matrix(0.9993 -3.730000e-02 -3.730000e-02 -0.9993 -6.2549 86.5185)">
			<stop  offset="0" style="stop-color:#F3F5DF"/>
			<stop  offset="1" style="stop-color:#DDE093"/>
		</linearGradient>
		<path class="st2" d="M137,44.3c-0.6,1.1-1.9,1.4-3,0.8c-1.1-0.6-1.4-1.9-0.8-3s1.9-1.4,3-0.8C137.3,41.9,137.6,43.3,137,44.3z"/>
		<g>
			<path class="st0" d="M136.7,23.8L136.7,23.8c-1.2,5.2-6.2,11.7-8.3,12.3l-1.1,0.3l0.9,1l0.1,0c0.4,0.3,9.6,6.7,22.2,5l0.2,0
				l1-0.6l-0.7-0.6c-1.6-1.4-3.3-9.5-2.1-14.7c1.1-4.6-2.5-6.8-4.6-7.3l-0.2,0C141.9,18.8,137.7,19.2,136.7,23.8z"/>
			<path class="st1" d="M135.4,23.5L135.4,23.5c-1.1,5-6,10.9-7.4,11.3l-1.1,0.3c-0.4,0.1-0.8,0.5-0.9,0.9c-0.1,0.4,0,0.9,0.3,1.2
				l0.9,1c0.1,0.1,0.2,0.2,0.2,0.2c0.4,0.3,10,7,23.1,5.3l0.2,0c0.2,0,0.4-0.1,0.5-0.2l1-0.6c0.4-0.2,0.6-0.6,0.6-1
				c0-0.4-0.1-0.8-0.4-1.1l-0.7-0.6c-1.1-0.9-2.9-8.4-1.7-13.4c1.2-5.2-2.7-8.2-5.6-8.9l-0.2-0.1C141.4,17.3,136.6,18.3,135.4,23.5z
				 M138,24.1L138,24.1c1-4.5,5.6-3.7,5.8-3.6l0.1,0c0.1,0,3.8,1,3.8,4.5c0,0.4-0.1,0.8-0.2,1.3c-0.3,1.2-0.4,2.6-0.4,4
				c0,4.2,1,8.8,2.3,11c-9.9,0.9-17.3-3-19.5-4.4C132.6,35,136.9,28.9,138,24.1z"/>
		</g>
		
			<linearGradient id="SVGID_2_" gradientUnits="userSpaceOnUse" x1="136.6257" y1="49.9082" x2="158.2756" y2="49.9082" gradientTransform="matrix(0.9993 -3.730000e-02 -3.730000e-02 -0.9993 -6.2549 86.5185)">
			<stop  offset="0" style="stop-color:#F3F5DF"/>
			<stop  offset="1" style="stop-color:#DDE093"/>
		</linearGradient>
		<path class="st3" d="M150.5,41.8c-1.9-1.7-3.6-10.2-2.4-15.4c1.2-5.2-4.1-6.5-4.1-6.5l-0.2,0c0,0-5.3-1.1-6.5,4.1
			c-1.2,5.2-6.3,12.1-8.8,12.8l0.1,0.1C128.7,36.9,137.9,43.4,150.5,41.8L150.5,41.8z"/>
		<g>
			<path class="st0" d="M174.6,22L174.6,22c-2,0.1-3.5,1.8-3.4,3.8c0.1,2,1.8,3.5,3.8,3.4c1,0,1.9-0.4,2.5-1.2
				c0.6-0.7,1-1.6,0.9-2.6C178.3,23.5,176.6,21.9,174.6,22z"/>
			<path class="st1" d="M174.6,20.7L174.6,20.7c-2.7,0.1-4.8,2.4-4.7,5.1c0.1,2.7,2.4,4.8,5.1,4.7c1.3-0.1,2.5-0.6,3.4-1.6
				c0.9-1,1.3-2.2,1.3-3.5C179.6,22.7,177.3,20.6,174.6,20.7z M177,25.5c0,0.6-0.2,1.2-0.6,1.6s-1,0.7-1.6,0.7
				c-1.2,0.1-2.3-0.9-2.4-2.2s0.9-2.3,2.2-2.4v0C175.9,23.3,177,24.3,177,25.5z"/>
		</g>
		
			<linearGradient id="SVGID_3_" gradientUnits="userSpaceOnUse" x1="180.2779" y1="54.0844" x2="186.0634" y2="54.0844" gradientTransform="matrix(0.9993 -3.730000e-02 -3.730000e-02 -0.9993 -6.2549 86.5185)">
			<stop  offset="0" style="stop-color:#F3F5DF"/>
			<stop  offset="1" style="stop-color:#DDE093"/>
		</linearGradient>
		<path class="st4" d="M177.7,25.5c0.1,1.6-1.2,2.9-2.8,3c-1.6,0.1-2.9-1.2-3-2.8c-0.1-1.6,1.2-2.9,2.8-3
			C176.2,22.7,177.6,23.9,177.7,25.5z"/>
		<g>
			<path class="st0" d="M150.3,9c-3.2,0.4-5.3,3.1-5.4,3.1l0,0l-0.1,0.2c-0.1,0.1-4.7,6.3,1.3,11.1c5.6,4.4,10.6,14.3,10.2,17.1
				l-0.2,1.2l1.3-0.5l0.1,0c0.1-0.1,13.3-7.6,18.5-23.6l0.1-0.2l-0.1-1.2l-0.9,0.4c-2.6,1.1-13.5-1.4-19.1-5.8
				C154.2,9.3,152.3,8.7,150.3,9z"/>
			<path class="st1" d="M150.1,7.7c-3.8,0.5-6.2,3.6-6.2,3.6l-0.1,0.1c-0.8,1.1-2,3.4-2,6c0,2.3,0.9,4.8,3.6,6.9
				c5.4,4.2,9.7,13.2,9.7,15.7c0,0.1,0,0.2,0,0.2l-0.2,1.2c0,0.1,0,0.1,0,0.2c0,0.4,0.2,0.8,0.5,1c0.4,0.3,0.8,0.4,1.3,0.2l1.3-0.4
				c0.1,0,0.2-0.1,0.3-0.1c0.1-0.1,13.8-7.9,19.1-24.4l0.1-0.1c0.1-0.2,0.1-0.4,0.1-0.6l-0.1-1.2c-0.1-0.4-0.3-0.8-0.6-1
				s-0.8-0.2-1.2-0.1l-0.9,0.4c-1.9,0.8-12.1-1.2-17.7-5.6C154.7,8.1,152.5,7.4,150.1,7.7z M150.5,10.3L150.5,10.3
				c1.6-0.2,3.2,0.3,4.7,1.5c5.2,4.1,15,6.8,19.3,6.3c-4.5,12.7-14.2,19.7-16.9,21.5c-0.4-4.3-5.4-13.2-10.6-17.2
				c-2-1.6-2.6-3.3-2.6-4.9c0-2.2,1.3-4,1.5-4.3l0.1-0.2C146,12.9,147.8,10.7,150.5,10.3z M150.1,7.7L150.1,7.7L150.1,7.7z"/>
		</g>
		
			<linearGradient id="SVGID_4_" gradientUnits="userSpaceOnUse" x1="152.4919" y1="55.364" x2="184.09" y2="55.364" gradientTransform="matrix(0.9993 -3.730000e-02 -3.730000e-02 -0.9993 -6.2549 86.5185)">
			<stop  offset="0" style="stop-color:#F3F5DF"/>
			<stop  offset="1" style="stop-color:#DDE093"/>
		</linearGradient>
		<path class="st5" d="M175.4,17.2c-3.1,1.3-14.2-1.5-19.8-5.9c-5.5-4.3-10.1,1.2-10.1,1.2l-0.1,0.2c0,0-4.3,5.7,1.2,10.1
			c5.5,4.3,11,14.4,10.4,17.8l0.1-0.1c0,0,13-7.3,18.2-23.2L175.4,17.2z"/>
	</g>
	
		<linearGradient id="SVGID_5_" gradientUnits="userSpaceOnUse" x1="0" y1="44.56" x2="153.29" y2="44.56" gradientTransform="matrix(1 0 0 -1 0 80.0799)">
		<stop  offset="0" style="stop-color:#EBEDC6"/>
		<stop  offset="1" style="stop-color:#DDE093"/>
	</linearGradient>
	<path class="st6" d="M69.8,11.7c0.2,0,0.5-0.1,1.2-0.3c0.3-0.1,0.4-0.1,0.4-0.2c0,0.1,0,0.2,0,0.4c0,0.2,0,0.7-0.2,2l-0.6,3.5
		L70.1,21c-0.4,3-0.9,5.6-1.4,7.9L68,32.7c-0.1,0.6-0.2,1.1-0.2,1.5c0,0.7,0.2,1.2,0.6,1.6c0.4,0.4,1,0.6,1.6,0.6c0.4,0,1-0.1,2-0.4
		c2-0.6,3-0.9,3.3-1.1c0.4-0.1,0.8-0.3,1-0.5c0.1,0.5,0.2,0.9,0.5,1.2c0.4,0.5,1,0.7,1.8,0.7c0.8,0,2.1-0.4,3.9-1.2
		c0.9-0.4,1.4-0.6,1.6-0.7c0.1,0.2,0.2,0.4,0.3,0.5c0.6,0.9,1.5,1.5,2.6,1.5c0.9,0,2-0.3,3.1-1c0.8-0.4,1.6-1,2.6-1.8
		c0,0.2,0,0.5,0,0.5c0,0.8,0.2,1.4,0.6,1.8c0.4,0.4,1,0.6,1.7,0.6c1.1,0,2.5-0.4,4.4-1.3c0.4-0.2,0.7-0.3,1-0.5
		c0.7,1.5,1.8,1.7,2.3,1.7c1.7,0,3.6-0.9,5.7-2.9c0,0,0,0,0,0c0,2.6,1.9,2.8,2.4,2.8c1,0,2.5-0.4,4.6-1.3c0.3-0.1,0.9-0.3,1.3-0.8
		c0.1,0.7,0.4,1.2,0.9,1.5c-0.1,0.1-0.3,0.2-0.3,0.2c-1.3,1.1-2.4,2.1-3.1,2.9c-0.9,0.9-1.4,1.8-1.8,2.6c-0.4,0.8-0.6,1.7-0.6,2.6
		c0,1.2,0.4,2.2,1.1,2.9c0.7,0.8,1.7,1.1,2.9,1.1c1.4,0,2.8-0.4,4.2-1.2c1.3-0.7,1.8-1.3,1.8-2.1c0-0.8-0.6-1.3-1.3-1.3
		c-0.4,0-0.6,0.2-0.9,0.3c-0.2,0.1-0.4,0.1-0.6,0.1c-0.6,0-1-0.1-1.4-0.4c-0.3-0.3-0.4-0.5-0.4-0.9c0-0.7,0.2-1.4,0.6-2.1
		c0.4-0.8,1.1-1.6,2.1-2.5c1-0.9,2.3-1.9,3.9-3c2.1-1.4,3.7-2.7,4.8-3.7c1.1-1.1,2.1-2.2,3-3.5c2-2.9,3.1-5.8,3.1-8.5
		c0-3.2-1.6-3.7-2.5-3.7c-0.9,0-2.1,0.4-4.2,1.2h0c-1.8,0.7-2.6,1.2-2.6,2.1c0,0.8,0.6,1.4,1.4,1.4c0.3,0,0.6-0.1,0.9-0.3
		c0.4-0.2,0.7-0.2,1-0.3c0.1,0.1,0.1,0.3,0.1,0.8c0,1.4-0.3,2.9-0.9,4.5c-0.6,1.6-1.4,3.1-2.4,4.3c-0.6,0.8-1.2,1.3-1.7,1.7
		c-0.5,0.3-0.8,0.4-0.9,0.4c0-0.1,0-0.1,0-0.2c0-0.6,0.1-1.2,0.1-2l0.7-4.7l0.5-3c0.3-1.9,0.4-3,0.4-3.5c0-1.5-1-2.5-2.5-2.5
		c-0.8,0-2.3,0.5-4.8,1.6c-0.3,0.1-0.5,0.2-0.6,0.3c0,0,0-0.1,0-0.1l0,0l0-0.1l0-0.1l0.2-0.6l-0.1-0.3l-0.3-0.7l-0.2-0.1l-0.7-0.3
		c0,0-0.2,0.1-0.2,0.1c0,0-0.5,0.1-0.5,0.1l-0.1,0c-0.4,0.2-0.6,0.2-0.7,0.2l0,0c-0.1,0-0.6-0.1-0.6-0.1l0.1,0l-1.1-0.1
		c-1.3,0-2.6,0.4-4,1.1c-1.3,0.7-2.6,1.7-3.7,2.8c-3.2,3.5-4.8,7.4-4.8,11.6c0,0.2,0,0.4,0,0.6L99.8,32l-0.1,0
		c-0.6,0.3-0.9,0.3-1,0.3c-0.1-0.2-0.2-0.5-0.2-1.4c0-0.7,0.1-1.4,0.2-2.1c0,0,0,0,0,0c0.1-0.2,0.1-0.7,0.2-1.5l0.2-1.4
		c0.2-1,0.6-3.4,1.2-7c0,0,0,0,0,0c0.1-0.2,0.2-0.7,0.3-1.4l0.4-2l0.7-3.5c0.4-2.3,0.5-2.9,0.5-3.2c0-0.6-0.2-1-0.5-1.4
		c-0.3-0.4-0.8-0.5-1.3-0.5c-0.4,0-0.8,0.1-1.2,0.2l0.1,0c-0.9,0.3-2.5,0.8-4.5,1.5C94.1,8.8,93,9.2,93,10.2c0,0.8,0.6,1.4,1.4,1.4
		c0.2,0,0.3,0,1.2-0.3c0.2-0.1,0.3-0.1,0.4-0.1c0,0.1,0,0.2,0,0.4c0,0.2,0,0.8-0.3,2.6c0,0-0.2,1.3-0.2,1.8
		c-2.1,0.3-4.2,1.4-6.2,3.3c-1.2,1.1-2.2,2.3-3,3.6c-0.9,1.4-1.5,2.9-1.9,4.3c-0.4,1.5-0.6,3-0.7,4.5c-0.2,0.1-0.4,0.1-0.6,0.2
		c-0.5,0.2-0.7,0.3-0.8,0.3c0,0-0.2-0.2-0.2-1c0-1,0.3-2.9,0.8-5.6l0.6-2.9c0.5-2.7,0.8-4.1,0.8-4.7c0-0.8-0.3-1.5-0.8-1.9
		c-0.4-0.3-0.9-0.4-1.2-0.4c-0.5,0-1.4,0.2-4.4,1.4h0c-1.3,0.6-1.5,0.7-1.7,0.8c-0.2,0.1-0.3,0.2-0.4,0.4l0.9-5.3l0.1-0.6l0.1-0.6
		c0,0,0.1-0.3,0.1-0.3l0.1-0.5c0.2-0.8,0.2-1,0.2-1.1c0-0.2,0.1-0.6,0.1-1c0-1.3-0.8-2.1-2.1-2.1c-0.9,0-2.2,0.4-4.4,1.3l0,0
		c-1.2,0.5-2.5,1.1-2.5,2.2C68.4,11.1,68.9,11.7,69.8,11.7z M114.4,27.1L114.4,27.1l0.1-0.9l0.8-4.8c0.1-0.4,0.1-0.7,0.2-1
		c0.2,0.2,0.6,0.4,1,0.4h0.1h0.1l0.6-0.2l0.5-0.2c0.2-0.1,0.4-0.2,0.6-0.2c0,0.1,0.1,0.2,0.1,0.5c0,0.5,0,1-0.1,1.3l-0.3,2.2
		c0,0,0,0.3,0,0.3s0,0.2,0,0.2c0,0,0,0.1,0,0.1l-0.1,0.5l0,0.1L118,26l-0.1,0.5l0,0c-0.1,0.2-0.1,0.5-0.2,1l-0.1,0.9l0,0
		c0,0.3-0.1,0.6-0.2,1.1l-0.2,1l-0.4,2.4c0,0,0,0.1,0,0.2l-0.1-0.2l-0.1-0.1c-0.1-0.1-0.1-0.1-0.7-0.3l-0.2-0.1l-0.6,0.1l-0.1,0
		c-0.5,0.2-0.7,0.2-0.7,0.2c-0.1,0-0.2,0-0.3-0.2c-0.1-0.2-0.2-0.4-0.2-0.8C113.9,30.8,114.1,29.3,114.4,27.1z M105.7,25.2
		c0.4-1.5,0.8-2.7,1.4-3.7c0.4-0.6,1.1-0.9,2.1-0.9c0.3,0,0.6,0.1,1,0.2c-0.2,1.5-0.4,2.9-0.7,4.3c-0.4,1.6-0.8,2.9-1.2,3.9
		c-0.4,0.9-0.9,1.6-1.5,2.2c-0.7,0.7-1.1,0.7-1.2,0.7c-0.1,0-0.1,0-0.2-0.2c-0.1-0.2-0.3-0.8-0.3-2.2
		C105.1,28.3,105.3,26.8,105.7,25.2z M89.4,26.6c0.2-1.1,0.5-2.2,0.8-3.1c0.3-0.9,0.6-1.6,0.9-2c0.2-0.3,0.6-0.5,1.1-0.7
		c0.5-0.2,1.1-0.3,1.7-0.3c0.3,0,0.5,0,0.7,0c0,0.5-0.1,1.1-0.3,2c-0.5,2.8-1,4.9-1.5,6.2c-0.5,1.1-1,2-1.7,2.6
		c-0.5,0.5-1,0.8-1.4,0.8c-0.2,0-0.2,0-0.3-0.3l0,0c-0.2-0.4-0.3-1.2-0.3-2.2C89.1,28.8,89.2,27.7,89.4,26.6z M74.2,29.1l0.3-2
		l0.3-1.7l0.1-0.9l0.3-1.7l0.4-2.7l0,0.1l0-0.1c0.2,0.5,0.7,0.9,1.3,0.9c0.4,0,0.8-0.1,1.1-0.4c0.3-0.2,0.5-0.2,0.6-0.3
		c0,0.2-0.1,0.6-0.2,1.9c-0.2,1.2-0.6,3.8-1.3,7.5c-0.2,1.2-0.4,2-0.5,2.7c-0.2-0.2-0.6-0.3-1-0.3c-0.2,0-0.4,0-0.9,0.2
		c-0.7,0.2-0.9,0.2-0.9,0.2c0,0-0.1-0.1-0.1-0.2C73.9,31.8,73.9,31.1,74.2,29.1z M25.5,32.6c0.9-0.7,1.7-1.4,2.4-2.2
		c0.7-0.7,1.4-1.5,2.2-2.6c0.6-0.8,1.4-2,2.4-3.6c0,0,0,0,0,0c0.2-0.2,0.4-0.5,0.8-1.1c0,0,0.2-0.1,0.2-0.1c0.1,0,0.3-0.1,1-0.1
		l3.1,0c2.6-0.1,4.5-0.1,5.7-0.2c-0.2,1.1-0.4,2.1-0.5,3c-0.2,1.6-0.3,2.9-0.3,3.7c0,1.9,0.3,3.6,1,4.8c0.9,1.8,2.2,2.2,3.2,2.2
		c0.7,0,1.4-0.2,2.3-0.4c0.8-0.3,1.5-0.6,2.3-1.1c0.7-0.4,1.3-0.9,1.3-1.6c0.2,0.4,0.4,0.9,0.7,1.2c0.9,1.3,2.2,1.9,3.8,1.9
		c1.5,0,2.9-0.4,4.3-1.3c1.4-0.8,2.6-2,3.7-3.3c1.1-1.4,2-2.9,2.6-4.6c0.6-1.7,1-3.4,1-5.1c0-1.9-0.4-3.4-1.3-4.6
		c-1-1.3-2.3-1.9-3.9-1.9c-1.3,0-2.7,0.5-4.1,1.4c-1.3,0.8-2.5,2-3.7,3.4c-1.1,1.4-2,2.9-2.7,4.5c-0.7,1.6-1,3.3-1,4.9
		c0,0.9,0.1,1.8,0.3,2.6l-0.1-0.1c-0.3-0.3-0.6-0.4-1-0.4c-0.3,0-0.6,0.1-0.9,0.3c-0.3,0.1-0.4,0.1-0.4,0.1c-0.2,0-0.7,0-1.2-1
		c-0.4-0.8-0.7-2.1-0.7-3.7c0-1.5,0.2-3.4,0.6-5.7c0.4-2.1,0.9-4.4,1.7-6.8c0.7-2.3,1.5-4.2,2.2-5.8c0.8-1.5,1.7-2.7,2.7-3.5
		c1-0.8,2.1-1.1,3.2-1.1c0.7,0,1,0.1,1.1,0.2c0,0.2-0.1,0.3-0.2,0.5l0,0l0,0.1L59,6v0.1c0,0.6,0.5,1.2,1.3,1.2
		c0.8,0,1.4-0.5,3.1-3.1c0.5-0.7,0.7-1.4,0.7-1.9c0-0.8-0.4-1.4-1.1-1.8C62.6,0.2,61.9,0,61.1,0c-1.6,0-3.3,0.5-5.3,1.6l0,0
		c-1.9,1-3.5,2.3-4.9,3.9c-1,1.2-2,2.4-2.8,3.7c-0.8,1.3-1.5,2.6-2.1,4.1c-0.6,1.4-1.1,2.9-1.5,4.4c-0.4,0-2.4,0-2.4,0l-3.9-0.1
		h-1.2l-0.3,0l-0.1,0l-0.5,0c-0.2,0-0.5,0-0.7,0.1c0.3-0.8,0.7-2,0.7-2c0.5-1.5,1.1-3.7,1.8-6.7c0.3-1.4,0.6-2,0.7-2.2l0.2-0.3
		L39,5.9l0-0.1c0-0.3-0.1-0.6-0.3-0.9c-0.2-0.2-0.5-0.4-1.1-0.4h-0.1l-0.7,0.2l-0.3,0.2c0,0-0.3,0.2-1.4,0.2c-1,0-2.1-0.1-3.2-0.2
		l-1.8-0.2c-0.8-0.1-1.4-0.2-1.9-0.2c-1.4,0-2.9,0.3-4.3,1c-1.4,0.7-2.8,1.6-3.9,2.8c-1.2,1.2-2.2,2.5-2.8,3.9c-0.7,1.4-1,2.9-1,4.4
		c0,1.4,0.4,2.6,1.2,3.5c0.8,1.1,1.9,1.7,3.1,1.7c1.2,0,2.5-0.6,3.6-1.8c0.9-1,1.3-1.6,1.3-2.2c0-0.8-0.6-1.4-1.4-1.4
		c-0.3,0-0.7,0.1-1,0.4c-0.1,0.1-0.3,0.2-0.7,0.2c-0.5,0-0.9-0.2-1.2-0.6c-0.4-0.5-0.6-1.2-0.6-2.1c0-0.6,0.2-1.3,0.4-1.9
		c0.3-0.6,0.7-1.1,1.2-1.5c0.5-0.4,1.2-0.8,1.9-1c0.8-0.2,1.6-0.4,2.5-0.4c1.5,0,3.6,0.2,6.1,0.6c-0.3,2-1,4.4-1.8,7.2
		c-1,3.2-2.1,5.8-3.2,7.8c-1,1.9-2.2,3.5-3.5,4.7c-1.3,1.2-2.7,2.1-4.1,2.6c-1.4,0.6-3,0.8-4.8,0.8c-3,0-5.5-0.8-7.3-2.4
		c-1.1-0.9-1.9-1.9-2.4-3.1c-0.6-1.2-0.9-2.3-0.9-3.5S4.6,21.9,5,21c0.5-0.9,1.1-1.7,1.8-2.3c0.7-0.5,1.5-0.8,2.3-0.8
		c0.7,0,1.3,0.2,1.6,0.4c0.3,0.3,0.5,0.6,0.5,1.2c0,0.2,0,0.3,0,0.3L11,20.2l0,0.2l-0.1,0.3v0.1c0,0.7,0.5,1.3,1.3,1.3
		c0.6,0,1.2-0.2,1.9-0.8c0.6-0.4,1-0.9,1.4-1.5c0.4-0.7,0.6-1.3,0.6-1.9c0-0.8-0.2-1.5-0.7-2.1c-0.5-0.6-1.1-1-1.8-1.3
		c-0.7-0.3-1.5-0.4-2.3-0.4c-1.3,0-2.6,0.3-3.9,0.8C6.1,15.4,5,16.1,4,17.1c-1.2,1.1-2.1,2.5-2.9,4.1C0.4,22.9,0,24.5,0,26
		c0,2.1,0.6,4,1.7,5.7c0.6,0.9,1.2,1.6,2,2.3c0.7,0.7,1.6,1.2,2.7,1.8c2,1,4.1,1.4,6.4,1.4C17.3,37.2,21.6,35.7,25.5,32.6z
		 M57.8,24.5c0.4-1.3,0.8-2.4,1.4-3.1c0.8-1.1,1.5-1.6,2.2-1.6c0.5,0,0.8,0.2,1.1,0.7C62.8,21,63,22,63,23.3c0,0.9-0.1,1.9-0.3,2.9
		c-0.2,1-0.4,1.9-0.7,2.9c-0.3,0.8-0.6,1.5-0.9,2c-0.6,0.9-1.2,1.3-2,1.3c-0.5,0-0.8-0.2-1.2-0.8l0,0c-0.4-0.7-0.6-1.7-0.6-3.1
		C57.3,27.2,57.5,25.8,57.8,24.5z M81.2,14.7c0.7,0,1.2-0.6,1.5-1.1l0.3-0.5l0.2-0.2c0,0,0.2-0.1,1-0.5c0.6-0.3,1-0.6,1.3-1.1
		c0.2-0.3,0.4-0.9,0.6-1.7l0,0c0.1-0.1,0.1-0.3,0.2-0.5c0,0,0.1-0.5,0.1-0.5c0.2-0.8,0.2-0.9,0.2-1.1c0-1.1-0.8-1.5-1.4-1.5
		c-0.3,0-0.6,0.1-1.1,0.3l0.1,0L84,6.3c0,0-0.3,0.1-0.3,0.1h0c-0.1,0-0.1,0.1-0.2,0.1c0,0-0.2,0.1-0.2,0.1l-0.9,0.3
		c-0.6,0.2-1,0.6-1.2,1.1c-0.1,0.2-0.2,0.6-0.5,2.2c-0.2,0.8-0.3,1.8-0.6,2.7c0,0-0.1,0.5-0.1,0.5v0v0.1
		C79.9,14.1,80.5,14.7,81.2,14.7z M109.9,42.8c0.2-0.8,0.2-0.9,0.2-1.1c0-1.1-0.8-1.5-1.4-1.5c-0.3,0-0.6,0.1-1.1,0.3l0.1,0
		l-0.2,0.1c0,0-0.3,0.1-0.3,0.1l0,0c-0.1,0-0.2,0.1-0.2,0.1c0,0-0.2,0.1-0.2,0.1l-0.9,0.3c-0.6,0.2-1,0.6-1.2,1.1
		c-0.1,0.2-0.2,0.6-0.5,2.2c-0.2,0.8-0.3,1.7-0.6,2.7c0,0-0.1,0.5-0.1,0.5v0v0.1c0,0.7,0.6,1.2,1.3,1.2c0.7,0,1.2-0.6,1.5-1.1
		l0.3-0.5l0.2-0.2c0,0,0.2-0.1,1-0.5c0.6-0.3,1-0.6,1.3-1.1c0.2-0.4,0.4-0.9,0.6-1.7c0,0,0,0,0,0c0.1-0.1,0.1-0.3,0.2-0.5
		C109.8,43.2,109.9,42.8,109.9,42.8z M148.5,57.5l-1.5-0.7c-1.5-0.7-1.8-0.9-1.8-0.9c-0.1-0.1-0.1-0.1-0.1-0.2
		c0-0.3,0.1-0.6,0.4-0.8c0.4-0.3,0.9-0.4,1.6-0.4c0.4,0,0.9,0.1,1.2,0.2c0.4,0.1,0.7,0.3,0.9,0.4c0,0,0,0,0.1,0.1c0,0,0,0.2,0,0.2
		l0,0.2l0,0c0.1,0.6,0.6,1.1,1.3,1.1c1,0,1.4-1,1.6-1.5c1-2.5,1-2.8,1-3c0-0.4-0.2-1.3-1.4-1.8c-0.6-0.3-1.4-0.4-2.4-0.4
		c-1,0-2,0.2-2.9,0.6c-0.9,0.3-1.7,0.9-2.6,1.8c-0.8,0.8-1.5,1.8-2,2.8c-0.5,1.1-0.8,2.1-0.8,3c0,0.7,0.1,1.2,0.4,1.7
		c0.3,0.4,0.7,0.8,1.3,1.2c0.5,0.3,1.3,0.7,2.4,1.3c2,0.9,2.6,1.3,2.8,1.4c0.1,0.1,0.2,0.3,0.2,0.5c0,0.3-0.1,0.6-0.3,0.9
		c-0.2,0.3-0.5,0.5-0.9,0.6c-0.4,0.2-1,0.3-1.7,0.3c-0.6,0-1.1-0.1-1.4-0.3c-0.2-0.1-0.2-0.2-0.3-0.2c0-0.1,0.1-0.4,0.1-0.4l0-0.1
		v-0.2c0-0.8-0.6-1.4-1.4-1.4c-0.4,0-1.1,0.2-1.5,1.2L141,65l-0.1,0.2l-0.3,0.7c-0.2-0.1-0.4-0.1-0.6-0.1h0l-0.1,0l-0.6,0.1
		c-0.6,0.1-0.8,0.2-0.9,0.2c0-0.1-0.1-0.1-0.1-0.3c0-0.2,0.1-0.8,0.3-2.5c0,0,0.1-0.4,0.1-0.6c0.1-0.3,0.1-0.7,0.2-1.3l0.2-1
		l0.2-1.1c0,0,0.3-1.5,0.3-1.5l0.5-2.5c0.3-1.4,0.4-2.3,0.4-2.7c0-0.8-0.3-1.4-0.9-1.9c-0.6-0.4-1.2-0.6-2-0.6
		c-1.1,0-2.4,0.4-3.8,1.3c-0.9,0.6-1.8,1.4-2.7,2.3c0.1-0.8,0.1-1.3,0.1-1.6c0-1.3-0.8-2.2-2.1-2.2c-0.5,0-1.3,0.2-2.5,0.7l0,0
		c-1.4,0.5-2.4,0.8-3,1.1c-0.3,0.1-0.6,0.3-0.7,0.4c-0.1-0.2-0.2-0.3-0.3-0.5c-1-1.3-2.3-1.9-3.9-1.9c-1.4,0-2.7,0.5-4.1,1.4
		c-1.3,0.8-2.5,2-3.7,3.4c-1.1,1.4-2,2.9-2.7,4.5c-0.7,1.6-1,3.3-1,4.9c0,0.7,0.1,1.3,0.2,1.8c-0.3,0-0.6,0.1-0.9,0.3
		c-0.5,0.2-0.7,0.3-0.8,0.3c0,0-0.2-0.2-0.2-1c0-1,0.3-2.9,0.8-5.6l0.6-2.9c0.5-2.7,0.8-4.1,0.8-4.7c0-1.7-1.1-2.3-2-2.3
		c-0.4,0-1.1,0.1-3.3,1c0-0.1,0-0.1,0-0.2c0-0.8-0.6-1.4-1.4-1.4c-0.4,0-0.8,0.2-1.1,0.5c-0.1,0.1-0.3,0.2-0.5,0.2
		c-0.4,0.1-1.1,0.1-2.3,0.1c0,0-0.1,0-0.2,0c0-0.2,0.1-0.3,0.1-0.3c0.1-0.7,0.3-1.3,0.4-1.8l0.1-0.4v-0.1c0-0.8-0.6-1.4-1.4-1.4
		c-0.6,0-1.2,0.4-2.6,1.9l0,0l-1.5,1.6h0c-0.1,0.1-0.2,0.2-0.4,0.5c0,0-0.4,0.4-0.4,0.4l-0.6,0.7l-1.4,1.5c-0.6,0.6-0.8,1-0.8,1.5
		c0,0.6,0.5,1.3,1.4,1.3c0.3,0,0.6-0.1,1-0.3c-0.1,0.6-0.2,1.4-0.2,1.4c-0.2,1.2-0.5,3.3-1,6.4l-0.4,3.2c0,0,0,0,0,0.1
		c-0.2-0.2-0.6-0.4-1-0.4c-0.3,0-0.6,0.1-1,0.3c-0.5,0.2-0.7,0.3-0.8,0.3c0,0-0.2-0.2-0.2-1c0-1,0.3-2.9,0.8-5.6l0.6-2.9
		c0.5-2.7,0.8-4.1,0.8-4.7c0-1.7-1.1-2.3-2-2.3c-0.5,0-1.4,0.2-4.4,1.5h0c-1.3,0.6-1.5,0.7-1.7,0.8c-0.3,0.2-0.5,0.4-0.6,0.6
		c0.1-0.2,0.1-0.6,0.2-1.1l0.3-2l0.7-3.5c0.4-2.3,0.5-2.9,0.5-3.2c0-0.6-0.2-1-0.5-1.4c-0.3-0.3-0.8-0.5-1.3-0.5
		c-0.4,0-0.8,0.1-1.2,0.2l0.1,0c-0.9,0.3-2.5,0.8-4.5,1.5c-0.4,0.2-1.5,0.6-1.5,1.6c0,0.8,0.6,1.3,1.4,1.3c0.2,0,0.3,0,1.2-0.3
		c0.2-0.1,0.3-0.1,0.4-0.1c0,0.1,0,0.2,0,0.4s0,0.8-0.3,2.6c0,0-0.2,1.3-0.2,1.8c-2.1,0.3-4.2,1.4-6.2,3.3c-1.2,1.1-2.2,2.3-3,3.6
		c-0.9,1.4-1.5,2.9-1.9,4.4c-0.4,1.6-0.7,3.1-0.7,4.6c0,0.2,0,0.4,0,0.6l-0.1,0l-0.1,0c-0.5,0.2-0.7,0.2-0.7,0.2
		c-0.1,0-0.2,0-0.3-0.2c-0.2-0.2-0.2-0.4-0.2-0.8c0-0.9,0.2-2.4,0.5-4.6l0,0.1l0.2-0.9l0.8-4.8c0.4-2.2,0.8-3.2,1.1-3.7l0,0l0-0.1
		l0,0l0.2-0.6L65,50.9l-0.3-0.7l-0.2-0.1l-0.7-0.3c0,0-0.2,0.1-0.2,0.1c0,0-0.5,0.1-0.5,0.1L63,50c-0.4,0.2-0.6,0.2-0.7,0.2v0
		c-0.1,0-0.6-0.1-0.6-0.1l0.1,0L60.7,50c-1.3,0-2.6,0.4-4,1.1c-1.3,0.7-2.6,1.7-3.7,2.9c-3.2,3.4-4.8,7.4-4.8,11.6
		c0,1.4,0.2,2.5,0.6,3.4c0.6,1.6,1.8,1.7,2.3,1.7c1.7,0,3.6-0.9,5.7-2.9c0,0,0,0,0,0c0,2.6,1.8,2.9,2.4,2.9c1,0,2.5-0.4,4.6-1.3
		c0.1,0,0.3-0.1,0.5-0.2c0,0,0,0,0,0c0.6,0.9,1.5,1.5,2.6,1.5c0.9,0,2-0.3,3.1-0.9c0.8-0.4,1.6-1,2.6-1.8c0,0.2,0,0.5,0,0.5
		c0,0.8,0.2,1.4,0.6,1.8c0.4,0.4,1,0.6,1.7,0.6c1.1,0,2.5-0.4,4.4-1.3c0.6-0.3,1.1-0.6,1.4-0.8c0.1,0.5,0.2,0.9,0.5,1.2
		c0.4,0.5,1,0.7,1.8,0.7c0.8,0,2.1-0.4,3.9-1.1c1.6-0.7,1.8-0.8,2-0.9c0.2-0.1,0.3-0.2,0.4-0.3c0.1,0.6,0.2,1.1,0.6,1.6
		c0.5,0.6,1.1,0.9,1.8,0.9c0.7,0,1.8-0.4,3.8-1.2c1.7-0.8,2.6-1.3,2.6-2.2V67l-0.4-0.9L97,65.8h-0.2c-0.3,0-0.6,0.1-0.9,0.3
		c-0.4,0.2-0.7,0.3-0.9,0.3c0-0.1-0.1-0.2-0.1-0.5c0-0.2,0.1-1.1,0.5-4.5l0.5-3.2l0.4-3c0,0,0-0.2,0.1-0.3c0.3,0,0.8,0.1,0.8,0.1
		c0,0,0.8,0,0.8,0l0.4,0c0.4,0,0.8-0.1,1.1-0.2c0.2,0.2,0.5,0.3,0.8,0.3c0.4,0,0.8-0.1,1.2-0.4c0.3-0.2,0.5-0.2,0.6-0.3
		c0,0.2-0.1,0.6-0.2,1.9c-0.2,1.2-0.6,3.8-1.3,7.5c-0.6,3.5-0.7,4.2-0.7,4.5c0,0.7,0.2,1.2,0.6,1.6c0.4,0.5,1,0.7,1.8,0.7
		c0.8,0,2.1-0.4,3.9-1.1c1.6-0.7,1.8-0.8,2-0.9c0.1-0.1,0.2-0.1,0.3-0.2c0.1,0.1,0.2,0.3,0.3,0.4c0.9,1.3,2.2,2,3.8,2
		c1.4,0,2.9-0.4,4.3-1.3c1.4-0.9,2.6-2,3.7-3.4c1.1-1.4,2-2.9,2.6-4.6c0.6-1.7,1-3.4,1-5.1c0-0.5-0.1-1.1-0.1-1.5l0,0
		c0.3,0,0.6-0.1,1-0.3c0.2-0.1,0.5-0.2,0.7-0.2c0,0,0,0,0,0l0,0c0,0,0.1,0.2,0.1,0.6c0,0.4,0,1.1-0.1,1.8c0,0,0,0.2,0,0.2
		c-0.1,0.3-0.1,0.6-0.2,1.2c0,0-0.2,1.6-0.2,1.7c-0.1,0.3-0.1,0.8-0.3,1.4l-0.3,1.8c-0.3,1.4-0.5,2.5-0.7,3.2l-0.6,2.4l-0.4,2.2
		l1.6-0.3c0.9-0.2,2.1-0.6,3.3-1.1c0.5-0.2,0.8-0.5,1-0.8c0.1-0.2,0.2-0.5,0.4-1.4c0.8-4.5,1.8-7.8,3-10c1.2-2.1,2.2-2.9,2.7-2.9
		c0,0.1,0,0.1,0,0.2c0,0.2-0.1,1.2-0.9,5.5l-0.8,3.9l0,0.1l-0.1,0.8c0,0,0,0.1,0,0.1l0,0.1l0-0.1l-0.1,0.4c0,0-0.2,0.8-0.2,0.8
		l-0.2,1.1c0,0-0.1,0.9-0.1,0.9v0v0c0,1.6,1,2.1,1.9,2.1c0.5,0,1.3-0.2,2.6-0.6l1.6-0.5l1.4-0.5c0.1,0.9,0.8,2,3.7,2
		c1.5,0,2.9-0.5,4.3-1.4c1.3-0.9,2.4-2.1,3.3-3.7c0.4-0.7,0.8-1.5,1.1-2.3c0.3-0.8,0.4-1.5,0.4-2.2c0-0.9-0.3-1.7-1-2.3
		C151.1,58.8,150.2,58.3,148.5,57.5z M57.9,59.3c-0.4,1.6-0.8,2.9-1.2,3.9c-0.4,0.9-0.9,1.6-1.5,2.2c-0.7,0.6-1.1,0.7-1.2,0.7
		c-0.1,0-0.1,0-0.2-0.2c-0.1-0.2-0.3-0.8-0.3-2.2c0-1.4,0.2-2.8,0.6-4.4c0.4-1.5,0.8-2.7,1.4-3.7c0.4-0.6,1.1-0.9,2.1-0.9
		c0.3,0,0.6,0.1,1,0.2C58.5,56.5,58.3,58,57.9,59.3z M74.3,56.7c-0.5,2.8-1,4.9-1.5,6.2c-0.5,1.1-1,2-1.7,2.6
		c-0.5,0.5-1,0.8-1.4,0.8c-0.2,0-0.2,0-0.3-0.3c-0.2-0.4-0.3-1.2-0.3-2.2c0-0.9,0.1-1.9,0.3-3c0.2-1.1,0.5-2.2,0.8-3.1
		c0.3-0.9,0.6-1.6,0.9-2c0.2-0.3,0.6-0.6,1.1-0.7c0.5-0.2,1.1-0.3,1.7-0.3c0.3,0,0.5,0,0.7,0C74.5,55.2,74.4,55.8,74.3,56.7z
		 M82.9,56.2c-0.2,1.2-0.6,3.8-1.3,7.5c-0.2,1.1-0.3,1.9-0.4,2.5C81,66.1,80.8,66,80.5,66h-0.1l-0.7,0.2l-0.1,0
		c-0.6,0.3-0.9,0.3-1,0.4c-0.1-0.2-0.2-0.5-0.2-1.4c0-0.6,0.1-1.4,0.2-2.1l0,0c0.1-0.2,0.1-0.7,0.2-1.5l0.2-1.4
		c0.1-0.9,0.5-3.1,1.1-6.3c0.1,0.7,0.6,1.2,1.3,1.2c0.4,0,0.8-0.1,1.2-0.4c0.3-0.2,0.5-0.2,0.6-0.3C83.1,54.5,83.1,54.9,82.9,56.2z
		 M118.4,60.4c-0.2,1-0.4,1.9-0.7,2.9c-0.3,0.8-0.6,1.5-0.9,2c-0.6,0.9-1.2,1.3-2,1.3c-0.5,0-0.9-0.2-1.2-0.8l0,0
		c-0.4-0.7-0.6-1.7-0.6-3.1c0-1.4,0.2-2.8,0.6-4.2c0.4-1.3,0.8-2.3,1.4-3.1c0.8-1.1,1.5-1.6,2.1-1.6c0.5,0,0.8,0.2,1.1,0.7
		c0.4,0.6,0.5,1.6,0.5,2.9C118.7,58.4,118.6,59.4,118.4,60.4z M48.8,55.2L48.8,55.2L48.8,55.2c0.2,1,0.9,1.3,1.4,1.3
		c0.2,0,1-0.1,1.3-1.1l1-3l0.1-0.3c0,0,0.1-0.6,0.1-0.6l0,0v-0.1c0-0.3-0.1-1.6-2.1-1.6c-1.7,0-3.4,0.8-5.1,2.2
		c-0.4,0.3-0.7,0.7-1,1c0-0.2,0-0.4,0-0.6c0-0.8-0.2-1.4-0.5-1.9c-0.2-0.4-0.8-0.8-1.8-0.8c-0.7,0-1.5,0.2-2.5,0.5l-2.8,0.9
		c-1,0.4-1.5,0.9-1.5,1.7c0,0.8,0.6,1.4,1.4,1.4c0.2,0,0.4-0.1,1-0.3c0.5-0.2,0.7-0.2,0.8-0.2c0.1,0,0.1,0,0.1,0.1
		c0.1,0.1,0.2,0.5,0.2,1.1c0,0.9-0.3,2.9-0.8,6.2c-0.5,3-0.8,4.8-0.9,5.3c-0.2,0.8-0.3,1.4-0.5,1.8l0,0c-0.1,0.3-0.2,0.6-0.2,0.9
		c0,0.8,0.6,1.4,1.4,1.4h0l0.1,0l0.5-0.1l3.8-1.4l0.2-1.5c0,0,0,0,0,0c0.1-0.2,0.1-0.6,0.2-1.2l0.1-0.9l0,0c0-0.2,0.1-0.5,0.1-0.9
		c0.3-2,0.7-3.6,1-4.8c0.3-1.1,0.8-2,1.2-2.8c0.9-1.4,1.8-2.1,3-2.1C48.7,55.2,48.8,55.2,48.8,55.2z M33.9,66.3L33.9,66.3L33.9,66.3
		l-0.5,0.1c-0.4,0.1-0.6,0.2-0.7,0.2c0,0,0,0,0,0c0-0.1,0.1-0.8,0.1-0.8l0.3-2.2l0.7-4.2l0.8-4.9c0.7-4.6,1.4-8,2-10
		c0.2-0.9,0.5-1.6,0.9-2c1.9,0.3,3.4,0.4,4.6,0.4c2.5,0,4.5-0.9,5.9-2.6c0.6-0.7,0.8-1.2,0.8-1.7c0-0.8-0.6-1.4-1.4-1.4h0l-0.1,0
		l-0.6,0.1l-0.1,0c-0.6,0.2-1.2,0.4-2,0.4c-1.4,0-4.3-0.2-8.7-0.7c-2.7-0.3-4.9-0.4-6.5-0.4c-2.2,0-4.3,0.3-6.2,1l0,0
		c-1.9,0.7-3.8,1.8-5.6,3.4c-1.7,1.4-3.2,2.9-4.3,4.5c-1.2,1.6-2.1,3.3-2.8,5.1c-0.7,1.7-1,3.4-1,5.1c0,1.6,0.4,3.1,1.1,4.5
		c0.7,1.3,1.8,2.4,3.1,3.1c1.3,0.7,2.9,1.1,4.6,1.1c1.5,0,3-0.3,4.3-0.8c1.3-0.5,2.5-1.3,3.8-2.3c0.9-0.8,1.6-1.7,2.2-2.8
		c-0.3,1.8-0.7,3.7-1.1,5.5c-0.3,1.5-0.6,2.6-0.8,3.3l-0.3,0.8c-0.1,0.4-0.2,0.7-0.2,1c0,0.9,0.7,1.6,1.7,1.6l1.1-0.1
		c0.5-0.1,1.5-0.3,3-0.7c1.1-0.3,1.8-0.5,2.2-0.7c1-0.4,1.1-1.2,1.1-1.5C35.3,66.9,34.7,66.3,33.9,66.3z M31.7,43.6
		c-0.3,0.6-0.6,1.3-0.8,2.1c-0.2,0.8-0.4,1.9-0.7,3.5c0,0-0.3,1.9-0.7,3.8c-0.2-0.7-0.5-1.4-1-2c-0.8-1-1.9-1.5-3-1.5
		c-1.2,0-2.5,0.5-3.7,1.6c-0.7,0.5-0.9,1.1-0.9,1.5c0,0.8,0.6,1.4,1.4,1.4h0.2l0.4-0.2l0.5-0.3c0,0,0.1,0,0.2,0c0.2,0,0.6,0.1,1,0.6
		c0.4,0.5,0.6,1.1,0.6,1.9c0,0.8-0.2,1.6-0.6,2.3c-0.4,0.7-1,1.3-1.7,1.7c-0.7,0.4-1.5,0.6-2.4,0.6c-1.2,0-2.3-0.3-3.2-1
		c-1-0.7-1.9-1.6-2.5-2.7c-0.6-1.1-0.9-2.4-0.9-3.8c0-2.1,0.6-4,1.9-5.7c1.3-1.8,3.1-3.2,5.4-4.2c2.3-1,4.9-1.6,7.6-1.6
		c1.2,0,2.6,0.1,4,0.2C32.4,42.6,32,43.2,31.7,43.6z M90.8,42.8C91,42,91,41.8,91,41.7c0-1.1-0.8-1.5-1.4-1.5c-0.3,0-0.6,0.1-1,0.3
		l-0.2,0.1c0,0-0.3,0.1-0.3,0.1l0,0c-0.1,0-0.2,0.1-0.2,0.1l-0.2,0.1l-0.9,0.3c-0.6,0.2-1,0.6-1.2,1.1c-0.1,0.2-0.2,0.6-0.5,2.2
		c-0.2,0.8-0.3,1.7-0.6,2.7c0,0-0.1,0.5-0.1,0.5l0,0v0.1c0,0.7,0.6,1.2,1.3,1.2s1.2-0.6,1.5-1.1l0.3-0.5l0.2-0.2c0,0,0.2-0.1,1-0.5
		c0.6-0.3,1-0.6,1.3-1.1c0.2-0.4,0.4-0.9,0.6-1.7l0,0c0.1-0.1,0.1-0.3,0.2-0.5C90.7,43.2,90.8,42.8,90.8,42.8z"/>
	<g>
		<path class="st1" d="M44.7,18.8h0.5l0.2-0.5c0.4-1.5,0.9-3,1.6-4.5c0.6-1.4,1.3-2.7,2-3.9c0.8-1.3,1.7-2.5,2.7-3.6
			c1.3-1.4,2.8-2.7,4.6-3.6c1.8-1,3.4-1.5,4.8-1.5c0.7,0,1.2,0.1,1.5,0.3c0.3,0.2,0.5,0.5,0.5,0.9c0,0.3-0.2,0.8-0.6,1.3
			c-1.1,1.7-1.8,2.6-2.2,2.6c-0.1,0-0.2,0-0.2-0.1c0-0.1,0-0.2,0.1-0.3c0.2-0.4,0.3-0.7,0.3-1.1c0-0.8-0.7-1.2-2.2-1.2
			c-1.4,0-2.7,0.4-3.8,1.4c-1.2,0.9-2.2,2.2-3.1,3.9c-0.8,1.6-1.5,3.6-2.3,5.9c-0.8,2.5-1.3,4.8-1.7,6.9C47,24,46.8,26,46.8,27.6
			c0,1.8,0.3,3.2,0.8,4.2c0.6,1,1.3,1.6,2.2,1.6c0.2,0,0.5-0.1,0.8-0.3C50.8,33,51,33,51.1,33c0.1,0,0.2,0,0.2,0.1s0.1,0.1,0.1,0.2
			c0,0.2-0.2,0.4-0.8,0.7c-0.7,0.4-1.4,0.7-2.1,1s-1.3,0.4-1.9,0.4c-0.9,0-1.6-0.5-2.2-1.6c-0.6-1.1-0.8-2.5-0.8-4.3
			c0-0.8,0.1-2,0.3-3.6c0.2-1.5,0.4-2.9,0.7-4.3c-0.3,0-0.7,0.1-1.2,0.1c-1.2,0.1-3.2,0.1-5.8,0.2l-3.1,0c-0.6,0-1,0.1-1.3,0.1
			c-0.3,0.1-0.5,0.2-0.7,0.4c-0.2,0.2-0.5,0.6-0.9,1.2c-1,1.7-1.8,2.8-2.4,3.6c-0.8,1-1.5,1.9-2.1,2.5c-0.7,0.8-1.5,1.4-2.3,2.1
			c-3.8,2.9-7.8,4.4-12,4.4c-2.1,0-4.1-0.4-5.9-1.3c-1-0.5-1.8-1-2.4-1.6c-0.7-0.6-1.3-1.3-1.8-2.1c-1-1.5-1.6-3.2-1.6-5.1
			c0-1.3,0.3-2.8,1-4.3c0.7-1.5,1.5-2.8,2.6-3.8c0.9-0.8,1.9-1.5,3-2c1.1-0.5,2.3-0.7,3.5-0.7c0.7,0,1.3,0.1,1.8,0.3
			c0.5,0.2,1,0.6,1.3,1c0.3,0.4,0.5,0.9,0.5,1.4c0,0.4-0.1,0.8-0.4,1.3c-0.3,0.5-0.7,0.9-1.2,1.2c-0.5,0.4-0.9,0.6-1.3,0.6
			c-0.1,0-0.2-0.1-0.2-0.2c0,0,0-0.1,0-0.2l0.1-0.2c0.2-0.2,0.3-0.5,0.3-1c0-0.8-0.3-1.5-0.9-2c-0.5-0.5-1.3-0.7-2.3-0.7
			c-1,0-2,0.3-3,1c-0.9,0.7-1.6,1.6-2.2,2.7c-0.5,1.1-0.8,2.4-0.8,3.7c0,1.3,0.3,2.7,1,4c0.6,1.3,1.5,2.4,2.7,3.4
			c2,1.8,4.7,2.6,8,2.6c1.9,0,3.7-0.3,5.2-0.9c1.5-0.6,3-1.6,4.5-2.8c1.4-1.3,2.7-2.9,3.8-4.9c1.1-2.1,2.2-4.8,3.2-8
			c1.1-3.4,1.8-6.2,2.1-8.4l-0.5-0.1c-2.9-0.4-5.2-0.7-6.9-0.7c-1,0-2,0.1-2.8,0.4c-0.9,0.3-1.6,0.7-2.3,1.2
			c-0.6,0.5-1.1,1.1-1.5,1.9c-0.4,0.8-0.5,1.5-0.5,2.3c0,1.1,0.3,2,0.8,2.7c0.5,0.7,1.2,1.1,2.1,1.1c0.6,0,1-0.1,1.3-0.4
			c0.2-0.1,0.3-0.2,0.3-0.2c0.2,0,0.3,0.1,0.3,0.3c0,0.2-0.3,0.7-1,1.4c-0.9,1-1.8,1.4-2.8,1.4c-0.8,0-1.6-0.4-2.2-1.2
			c-0.6-0.8-0.9-1.8-0.9-2.9c0-1.3,0.3-2.6,0.9-3.9c0.6-1.3,1.5-2.5,2.6-3.6c1.1-1.1,2.3-1.9,3.6-2.6c1.3-0.6,2.6-0.9,3.9-0.9
			c0.5,0,1.1,0.1,1.8,0.1l1.8,0.2C32.9,6,34,6.1,35.1,6.1C36,6.1,36.7,6,37,5.8l0.3-0.1c0.1-0.1,0.2-0.1,0.3-0.1
			c0.2,0,0.3,0.1,0.3,0.3c0,0,0,0.1-0.1,0.2l-0.2,0.3c-0.3,0.4-0.5,1.3-0.8,2.5c-0.7,2.9-1.3,5.1-1.8,6.6c-0.6,1.8-1.2,3.4-1.9,4.9
			L33,20.8c0.8-0.9,1.5-1.4,1.8-1.7c0.4-0.3,0.8-0.4,1.3-0.4h0.4c0.1,0,0.2,0,0.4,0H38c0.2,0,0.7,0,1.3,0l2.7,0L44.7,18.8z"/>
		<path class="st1" d="M53,29.8c0-1.5,0.3-2.9,0.9-4.4c0.6-1.5,1.5-2.9,2.5-4.2c1.1-1.3,2.2-2.4,3.4-3.2c1.2-0.8,2.4-1.2,3.5-1.2
			c1.2,0,2.2,0.5,3,1.5c0.7,1,1.1,2.3,1.1,4c0,1.6-0.3,3.1-0.9,4.7c-0.6,1.6-1.4,3-2.4,4.3c-1,1.3-2.1,2.3-3.4,3.1
			c-1.2,0.8-2.5,1.2-3.8,1.2c-1.2,0-2.2-0.5-2.9-1.5C53.3,33,53,31.6,53,29.8z M64.1,23.3c0-1.5-0.2-2.7-0.7-3.5
			c-0.5-0.8-1.2-1.2-2-1.2c-1,0-2.1,0.7-3,2.1c-0.6,0.8-1.2,2-1.6,3.5c-0.4,1.5-0.6,2.9-0.6,4.4c0,1.6,0.3,2.8,0.8,3.6
			c0.5,0.9,1.2,1.3,2.1,1.3c1.1,0,2.1-0.6,2.9-1.9c0.4-0.6,0.7-1.4,1-2.3c0.3-1,0.6-2,0.8-3C64,25.4,64.1,24.3,64.1,23.3z"/>
		<path class="st1" d="M69,34.2c0-0.4,0.1-0.8,0.1-1.3l0.7-3.8c0.5-2.4,0.9-5,1.4-8l0.6-3.8c0.2-1,0.4-2.2,0.6-3.5
			c0.2-1.1,0.2-1.8,0.2-2.2c0-1-0.4-1.6-1.1-1.6c-0.2,0-0.5,0.1-0.9,0.2c-0.4,0.2-0.7,0.3-0.8,0.3c-0.2,0-0.3-0.1-0.3-0.2
			c0-0.3,0.6-0.7,1.8-1.2c2-0.8,3.3-1.3,4-1.3c0.7,0,1,0.3,1,1c0,0.4,0,0.7-0.1,0.9c0,0.1-0.1,0.4-0.2,0.9c-0.1,0.2-0.1,0.4-0.1,0.5
			c0,0.1,0,0.2-0.1,0.3l-0.1,0.6l-0.1,0.6c-0.4,2.4-0.8,4.7-1.2,6.9c-0.2,1.1-0.3,1.9-0.4,2.7c-0.2,1-0.2,1.6-0.3,1.7
			c0,0.2-0.1,0.5-0.1,0.9s-0.2,0.9-0.3,1.7l-0.3,2c-0.2,1.6-0.3,2.7-0.3,3.2c0,0.4,0.1,0.7,0.3,1c0.2,0.2,0.5,0.4,0.8,0.4
			c0.3,0,0.7-0.1,1.2-0.3c0.3-0.1,0.4-0.2,0.5-0.2c0.2,0,0.3,0.1,0.3,0.3c0,0.3-0.3,0.5-1,0.8c-0.3,0.1-1.4,0.5-3.2,1
			c-0.8,0.2-1.4,0.4-1.7,0.4C69.3,35.4,69,35,69,34.2z"/>
		<path class="st1" d="M79.8,20.1c0-0.8-0.3-1.2-0.8-1.2c-0.3,0-0.8,0.2-1.6,0.6c-0.2,0.1-0.4,0.2-0.5,0.2c-0.2,0-0.3-0.1-0.3-0.3
			c0-0.2,0.1-0.3,0.3-0.4c0.1-0.1,0.6-0.3,1.5-0.7c2.2-0.9,3.5-1.4,4-1.4c0.6,0,0.9,0.4,0.9,1.2c0,0.5-0.3,2-0.8,4.4L82,25.4
			c-0.6,2.8-0.8,4.7-0.8,5.8c0,1.4,0.4,2.1,1.2,2.1c0.2,0,0.7-0.2,1.3-0.5c0.2-0.1,0.3-0.2,0.4-0.2c0.2,0,0.3,0.1,0.3,0.2
			c0,0.2-0.1,0.3-0.4,0.5c-0.1,0.1-0.7,0.4-1.8,0.8c-1.7,0.7-2.8,1.1-3.5,1.1c-0.4,0-0.7-0.1-0.9-0.3c-0.2-0.2-0.3-0.5-0.3-0.9
			c0-0.3,0.2-1.8,0.7-4.3c0.7-3.8,1.1-6.3,1.3-7.6C79.7,21.1,79.8,20.4,79.8,20.1z M85.1,7.1c0.2,0,0.3,0.1,0.3,0.4
			c0,0.1-0.1,0.4-0.2,0.8c0,0,0,0.2-0.1,0.4C85.1,9,85.1,9.2,85,9.3c-0.2,0.7-0.3,1.2-0.5,1.4c-0.1,0.2-0.4,0.4-0.8,0.6
			c-0.6,0.3-1,0.5-1.2,0.6c-0.1,0.1-0.3,0.3-0.5,0.5l-0.3,0.4c-0.3,0.4-0.5,0.6-0.6,0.6c-0.1,0-0.2-0.1-0.2-0.1c0-0.1,0-0.2,0.1-0.3
			c0.2-0.9,0.4-1.9,0.6-2.7c0.2-1.1,0.3-1.7,0.4-1.9c0.1-0.2,0.3-0.3,0.6-0.5l1-0.3c0.1,0,0.1-0.1,0.2-0.1c0.1,0,0.1-0.1,0.2-0.1
			c0.1,0,0.1-0.1,0.2-0.1c0.1,0,0.2-0.1,0.2-0.1C84.8,7.1,85,7.1,85.1,7.1z"/>
		<path class="st1" d="M94.3,31l-0.3,0.3c-1.5,1.5-2.9,2.6-4.1,3.3c-1,0.6-1.9,0.8-2.6,0.8c-0.7,0-1.3-0.3-1.7-1
			c-0.4-0.6-0.6-1.5-0.6-2.7c0-1.4,0.2-2.8,0.6-4.3c0.4-1.4,1-2.7,1.8-4.1c0.8-1.2,1.7-2.4,2.8-3.4c2.1-2,4.3-3,6.4-3.1
			c0.1-0.2,0.1-0.3,0.1-0.4l0.3-2.2c0.2-1.4,0.3-2.3,0.3-2.7c0-1-0.3-1.5-1-1.5c-0.3,0-0.6,0.1-0.9,0.2c-0.5,0.2-0.7,0.3-0.8,0.3
			c-0.2,0-0.3-0.1-0.3-0.3c0-0.2,0.3-0.4,0.8-0.6C97,9,98.5,8.5,99.4,8.2c0.3-0.1,0.6-0.1,0.8-0.1c0.5,0,0.7,0.3,0.7,0.8
			c0,0.3-0.2,1.3-0.5,3l-0.7,3.6c-0.1,0.7-0.2,1.4-0.3,2c-0.1,0.7-0.2,1.1-0.3,1.4c-0.6,3.6-1.1,6-1.2,7c-0.2,1.1-0.3,2.1-0.4,2.9
			c-0.1,0.8-0.2,1.6-0.2,2.3c0,0.8,0.1,1.5,0.3,1.9c0.2,0.4,0.5,0.6,0.9,0.6c0.4,0,0.9-0.2,1.6-0.4c0.3-0.1,0.4-0.1,0.5-0.1
			c0.2,0,0.2,0.1,0.2,0.3c0,0.2-0.6,0.6-1.7,1.1c-1.7,0.8-3.1,1.2-3.9,1.2c-0.4,0-0.8-0.1-0.9-0.3c-0.2-0.2-0.3-0.5-0.3-1
			c0-0.2,0-0.7,0.1-1.3l0.1-1.4c0,0,0-0.1,0-0.2C94.2,31.3,94.3,31.1,94.3,31z M89.8,33.3c0.7,0,1.4-0.4,2.2-1.1
			c0.7-0.7,1.4-1.7,1.9-2.9c0.6-1.4,1.1-3.5,1.6-6.4c0.2-1,0.3-1.8,0.3-2.4c0-0.4-0.1-0.7-0.4-0.8c-0.2-0.1-0.7-0.2-1.4-0.2
			c-0.8,0-1.5,0.1-2.2,0.4c-0.7,0.3-1.2,0.6-1.5,1.1c-0.4,0.5-0.8,1.2-1.1,2.3c-0.4,1-0.7,2.1-0.8,3.3c-0.2,1.2-0.3,2.3-0.3,3.2
			c0,1.2,0.1,2.1,0.4,2.7C88.7,33,89.1,33.3,89.8,33.3z"/>
		<path class="st1" d="M109.8,31c-0.1,0.1-0.2,0.2-0.3,0.2c-0.1,0.1-0.1,0.1-0.1,0.1l-1.1,1.1c-2.1,2-4,3-5.5,3
			c-0.6,0-1-0.4-1.3-1.1c-0.3-0.7-0.5-1.7-0.5-2.9c0-4,1.5-7.6,4.5-10.9c1-1.1,2.1-2,3.3-2.6c1.2-0.6,2.4-1,3.4-1c0.1,0,0.5,0,1,0.1
			c0.5,0,0.7,0,0.6,0c0.3,0,0.7-0.1,1.1-0.3c0.1-0.1,0.2-0.1,0.3-0.1c0.1,0,0.1,0,0.2,0.1c0.1,0.1,0.1,0.1,0.1,0.1
			c0,0,0,0.1-0.1,0.2c-0.4,0.8-0.8,2.1-1.2,4c-0.2,1.3-0.6,3.2-1,5.8c-0.3,2.3-0.5,3.9-0.5,4.8c0,0.6,0.1,1.1,0.5,1.5
			c0.3,0.4,0.7,0.6,1.2,0.6c0.3,0,0.6-0.1,1.1-0.2c0.1,0,0.2,0,0.2,0c0.1,0,0.1,0,0.2,0.1c0.1,0.1,0.1,0.1,0.1,0.2
			c0,0.2-0.3,0.4-0.9,0.6c-1.9,0.8-3.4,1.2-4.2,1.2c-0.9,0-1.3-0.6-1.3-1.7c0-0.3,0-0.7,0.1-1.1C109.8,31.7,109.8,31.1,109.8,31z
			 M111.5,20.1c-0.8-0.3-1.5-0.5-2.2-0.5c-1.4,0-2.5,0.5-3.1,1.4c-0.7,1.1-1.2,2.4-1.6,4c-0.4,1.7-0.6,3.2-0.6,4.7
			c0,1.2,0.1,2.1,0.4,2.6c0.3,0.6,0.7,0.8,1.2,0.8c0.6,0,1.2-0.3,2-1c0.7-0.7,1.3-1.5,1.8-2.6c0.5-1.1,0.9-2.4,1.3-4.1
			C111,23.6,111.3,21.8,111.5,20.1z"/>
		<path class="st1" d="M119.8,35.7l0.4-0.3c-0.2,0-0.3,0-0.5,0c-0.1,0-0.2,0-0.3,0c-1,0-1.5-0.5-1.5-1.5c0-0.2,0-0.6,0.1-0.9
			l0.4-2.3c0-0.1,0.1-0.5,0.2-1.1c0.1-0.6,0.2-1.3,0.3-2c0.1-0.4,0.1-0.8,0.1-1c0-0.2,0.1-0.3,0.1-0.5c0-0.2,0-0.3,0.1-0.4
			c0-0.1,0.1-0.2,0.1-0.5c0-0.1,0-0.1,0-0.2c0-0.1,0-0.1,0-0.1v-0.2c0-0.1,0-0.2,0-0.3l0.3-2.2c0.1-0.4,0.1-0.9,0.1-1.5
			c0-1.1-0.4-1.6-1.1-1.6c-0.4,0-0.7,0.1-1.1,0.2l-0.5,0.2c-0.2,0.1-0.4,0.1-0.4,0.1c-0.2,0-0.3-0.1-0.3-0.3c0-0.1,0.1-0.3,0.2-0.4
			c0.1-0.1,0.4-0.2,1-0.4c2.3-1,3.8-1.5,4.4-1.5c0.9,0,1.4,0.5,1.4,1.4c0,0.5-0.1,1.6-0.4,3.4l-0.5,3c-0.1,0.8-0.4,2.4-0.7,4.8
			c-0.1,0.8-0.2,1.6-0.2,2.2c0,0.9,0.4,1.3,1.1,1.3c0.5,0,1-0.2,1.6-0.6c0.6-0.4,1.2-1.1,1.9-1.9c1.1-1.3,2-2.9,2.6-4.6
			c0.7-1.8,1-3.4,1-4.9c0-1.3-0.4-1.9-1.2-1.9c-0.5,0-1,0.1-1.5,0.4c-0.2,0.1-0.3,0.1-0.4,0.1c-0.2,0-0.3-0.1-0.3-0.3
			c0-0.2,0.6-0.6,1.9-1.1c1.9-0.7,3.1-1.1,3.8-1.1c0.9,0,1.4,0.9,1.4,2.6c0,2.5-0.9,5.1-2.9,7.8c-0.9,1.2-1.8,2.3-2.9,3.3
			c-1.1,1-2.6,2.2-4.6,3.6c-1.7,1.2-3,2.2-4,3.1c-1,1-1.8,1.9-2.3,2.8c-0.5,0.9-0.7,1.7-0.7,2.6c0,0.7,0.3,1.3,0.8,1.8
			c0.5,0.5,1.2,0.7,2.1,0.7c0.5,0,0.9-0.1,1.2-0.3c0.2-0.1,0.3-0.2,0.4-0.2c0.2,0,0.2,0.1,0.2,0.2c0,0.3-0.4,0.7-1.3,1.2
			c-1.2,0.7-2.4,1-3.6,1c-0.9,0-1.6-0.3-2.1-0.8c-0.5-0.5-0.8-1.3-0.8-2.2c0-0.8,0.2-1.5,0.5-2.2c0.3-0.7,0.8-1.4,1.6-2.3
			c0.7-0.8,1.8-1.8,3-2.8L119.8,35.7z"/>
	</g>
	<g>
		<path class="st1" d="M36.9,41.3c-0.6,0.5-1,1.5-1.4,2.9c-0.6,2.1-1.2,5.5-2,10.2l-0.8,4.9L32,63.5l-0.3,2.2c0,0.3-0.1,0.6-0.1,0.9
			c0,0.3,0.1,0.6,0.3,0.8c0.2,0.2,0.5,0.3,0.8,0.3c0.2,0,0.5-0.1,0.9-0.2c0.1,0,0.2-0.1,0.3-0.1c0.2,0,0.3,0.1,0.3,0.4
			c0,0.2-0.1,0.3-0.4,0.5c-0.3,0.1-1,0.3-2,0.6c-1.5,0.4-2.5,0.6-2.9,0.6c-0.5,0.1-0.8,0.1-0.9,0.1c-0.4,0-0.6-0.2-0.6-0.5
			c0-0.2,0-0.4,0.1-0.7l0.3-0.8c0.2-0.7,0.5-1.8,0.8-3.4c0.5-2.4,1-4.8,1.5-7.3c0.5-2.4,0.9-4.9,1.3-7.6c0.2-1.5,0.4-2.6,0.6-3.4
			c0.2-0.7,0.4-1.3,0.7-1.9c0.2-0.5,0.7-1.1,1.2-1.8l0.7-0.9c0.1-0.1,0.2-0.3,0.4-0.5c-2.1-0.3-4.1-0.5-6.1-0.5
			c-2.9,0-5.6,0.6-8.1,1.7c-2.5,1.1-4.4,2.7-5.8,4.6c-1.4,1.9-2.1,4.1-2.1,6.4c0,1.6,0.3,3,1,4.3c0.7,1.3,1.6,2.3,2.8,3.1
			c1.2,0.8,2.4,1.1,3.8,1.1c1,0,2-0.3,2.9-0.8c0.9-0.5,1.6-1.2,2.1-2.1c0.5-0.9,0.8-1.8,0.8-2.8c0-1-0.3-1.9-0.8-2.6
			c-0.5-0.7-1.1-1-1.8-1c-0.3,0-0.6,0.1-0.8,0.2l-0.3,0.2l-0.1,0.1c-0.2,0-0.3-0.1-0.3-0.3c0-0.2,0.2-0.4,0.5-0.7c1-0.9,2-1.3,3-1.3
			c0.8,0,1.6,0.3,2.2,1.1c0.6,0.7,0.9,1.6,0.9,2.6c0,1.1-0.3,2.2-0.8,3.3c-0.6,1.1-1.3,2.1-2.2,2.9c-1.1,1-2.3,1.7-3.4,2.1
			c-1.2,0.5-2.5,0.7-3.9,0.7c-1.5,0-2.9-0.3-4.1-1c-1.2-0.6-2.1-1.5-2.7-2.7c-0.6-1.2-1-2.5-1-3.9c0-1.5,0.3-3.1,0.9-4.7
			c0.6-1.7,1.5-3.3,2.6-4.8c1.1-1.5,2.5-2.9,4.2-4.3c1.7-1.5,3.5-2.6,5.3-3.2c1.8-0.7,3.7-1,5.8-1c1.6,0,3.7,0.1,6.4,0.4
			c4.4,0.5,7.4,0.7,8.8,0.7c0.9,0,1.7-0.2,2.4-0.5c0.1,0,0.2-0.1,0.3-0.1c0.2,0,0.3,0.1,0.3,0.3c0,0.2-0.2,0.6-0.6,1
			c-1.2,1.5-2.9,2.2-5,2.2C40.7,41.8,39,41.6,36.9,41.3z"/>
		<path class="st1" d="M41.5,67.6l-0.1,0.8l-3.1,1.1c-0.2,0.1-0.3,0.1-0.3,0.1c-0.2,0-0.3-0.1-0.3-0.3c0-0.1,0.1-0.3,0.2-0.5
			c0.2-0.5,0.3-1.1,0.5-2c0.1-0.5,0.4-2.3,0.9-5.3c0.5-3.3,0.8-5.4,0.8-6.3c0-0.8-0.1-1.3-0.3-1.7c-0.2-0.4-0.6-0.6-1-0.6
			c-0.3,0-0.7,0.1-1.2,0.3c-0.3,0.1-0.5,0.2-0.6,0.2c-0.2,0-0.3-0.1-0.3-0.3c0-0.2,0.2-0.4,0.7-0.6c1.3-0.5,2.3-0.8,2.8-0.9
			c0.9-0.3,1.6-0.4,2.1-0.4c0.4,0,0.7,0.1,0.9,0.3c0.2,0.3,0.3,0.7,0.3,1.2c0,1.2-0.3,2.9-0.8,5.2l-0.1,0.4l0.2-0.4
			c0.7-1.2,1.3-2.2,1.8-3c0.4-0.6,1-1.2,1.7-1.9c1.5-1.3,2.9-1.9,4.3-1.9c0.7,0,1,0.2,1,0.5c0,0.1,0,0.3-0.1,0.4l-0.1,0.2l-1,2.9
			c-0.1,0.2-0.2,0.3-0.3,0.3c-0.1,0-0.2-0.1-0.3-0.3c-0.1-0.7-0.6-1.1-1.6-1.1c-1.6,0-2.9,0.9-4,2.6c-0.5,0.9-1,1.9-1.3,3.1
			c-0.4,1.2-0.7,2.8-1,4.9c-0.1,0.4-0.2,1-0.3,1.7C41.7,66.9,41.6,67.3,41.5,67.6z"/>
		<path class="st1" d="M58.2,65.1c-0.1,0.1-0.2,0.2-0.2,0.2c-0.1,0.1-0.1,0.1-0.2,0.1l-1.1,1.1c-2.1,2-4,3-5.5,3
			c-0.6,0-1-0.4-1.3-1.1c-0.3-0.7-0.5-1.7-0.5-2.9c0-4,1.5-7.6,4.5-10.9c1-1.1,2.1-2,3.3-2.6c1.2-0.6,2.4-1,3.4-1c0.1,0,0.4,0,1,0.1
			c0.5,0,0.7,0.1,0.6,0.1c0.3,0,0.7-0.1,1.1-0.3c0.1-0.1,0.2-0.1,0.3-0.1c0.1,0,0.1,0,0.2,0.1c0.1,0.1,0.1,0.1,0.1,0.1
			s0,0.1-0.1,0.2c-0.4,0.8-0.8,2.1-1.2,4c-0.2,1.3-0.6,3.2-1,5.8c-0.3,2.3-0.5,3.9-0.5,4.8c0,0.6,0.2,1.1,0.5,1.5
			c0.3,0.4,0.7,0.6,1.2,0.6c0.3,0,0.6-0.1,1.1-0.2c0.1,0,0.2-0.1,0.2-0.1c0.1,0,0.1,0,0.2,0.1c0.1,0.1,0.1,0.1,0.1,0.2
			c0,0.2-0.3,0.4-0.9,0.6c-1.9,0.8-3.3,1.2-4.2,1.2c-0.9,0-1.3-0.6-1.3-1.7c0-0.3,0-0.6,0.1-1.1C58.2,65.8,58.2,65.3,58.2,65.1z
			 M59.9,54.2c-0.8-0.3-1.5-0.5-2.2-0.5c-1.4,0-2.5,0.5-3.1,1.4c-0.7,1.1-1.2,2.4-1.6,4c-0.4,1.6-0.6,3.2-0.6,4.7
			c0,1.2,0.1,2.1,0.4,2.6c0.3,0.6,0.7,0.8,1.2,0.8c0.6,0,1.2-0.4,1.9-1c0.7-0.7,1.3-1.5,1.8-2.5c0.5-1.1,0.9-2.4,1.3-4.1
			C59.4,57.8,59.7,56,59.9,54.2z"/>
		<path class="st1" d="M74.2,65.2l-0.4,0.4c-1.5,1.5-2.9,2.6-4.1,3.2c-1,0.6-1.9,0.8-2.6,0.8c-0.7,0-1.3-0.3-1.7-1
			C65,68,64.8,67.1,64.8,66c0-1.4,0.2-2.8,0.6-4.3c0.4-1.4,1-2.7,1.8-4.1c0.8-1.2,1.7-2.4,2.8-3.4c2.1-2,4.3-3,6.4-3.1
			c0.1-0.2,0.1-0.3,0.1-0.4l0.3-2.2c0.2-1.4,0.3-2.3,0.3-2.7c0-1-0.3-1.5-1-1.5c-0.3,0-0.6,0.1-0.9,0.2c-0.5,0.2-0.7,0.3-0.8,0.3
			c-0.2,0-0.3-0.1-0.3-0.3c0-0.2,0.3-0.4,0.8-0.6c2.1-0.7,3.5-1.2,4.4-1.5c0.3-0.1,0.6-0.1,0.8-0.1c0.5,0,0.7,0.3,0.7,0.8
			c0,0.3-0.2,1.3-0.5,3l-0.7,3.6c-0.1,0.7-0.2,1.4-0.3,2c-0.1,0.6-0.2,1.1-0.3,1.4c-0.6,3.6-1,6-1.2,7c-0.2,1.1-0.3,2.1-0.4,2.9
			c-0.1,0.8-0.2,1.6-0.2,2.3c0,0.9,0.1,1.5,0.3,1.9c0.2,0.4,0.5,0.6,0.9,0.6c0.4,0,0.9-0.1,1.6-0.4c0.3-0.1,0.4-0.1,0.5-0.1
			c0.2,0,0.2,0.1,0.2,0.3c0,0.2-0.6,0.6-1.7,1.1c-1.8,0.8-3.1,1.2-3.9,1.2c-0.4,0-0.8-0.1-0.9-0.3c-0.2-0.2-0.3-0.5-0.3-1
			c0-0.2,0-0.7,0.1-1.3l0.1-1.4c0,0,0-0.1,0-0.2C74.2,65.4,74.2,65.3,74.2,65.2z M69.7,67.4c0.7,0,1.5-0.4,2.2-1.1
			c0.7-0.7,1.4-1.7,1.9-2.9c0.6-1.4,1.1-3.5,1.6-6.4c0.2-1,0.3-1.8,0.3-2.4c0-0.4-0.1-0.7-0.4-0.8c-0.2-0.2-0.7-0.2-1.4-0.2
			c-0.8,0-1.5,0.1-2.1,0.4c-0.7,0.3-1.2,0.6-1.5,1.1c-0.4,0.5-0.8,1.2-1.1,2.3c-0.4,1-0.6,2.1-0.8,3.3c-0.2,1.2-0.4,2.3-0.4,3.3
			c0,1.2,0.1,2.1,0.4,2.7C68.6,67.1,69.1,67.4,69.7,67.4z"/>
		<path class="st1" d="M84.2,54.2c0-0.8-0.3-1.2-0.8-1.2c-0.3,0-0.8,0.2-1.6,0.6c-0.2,0.1-0.4,0.2-0.5,0.2c-0.2,0-0.3-0.1-0.3-0.3
			c0-0.2,0.1-0.3,0.3-0.4c0.1-0.1,0.6-0.3,1.5-0.7c2.2-0.9,3.5-1.4,4-1.4c0.6,0,0.9,0.4,0.9,1.2c0,0.5-0.3,2-0.8,4.4l-0.6,2.9
			c-0.6,2.7-0.8,4.7-0.8,5.8c0,1.4,0.4,2.1,1.2,2.1c0.2,0,0.7-0.2,1.3-0.5c0.2-0.1,0.3-0.2,0.4-0.2c0.2,0,0.3,0.1,0.3,0.2
			c0,0.2-0.1,0.4-0.4,0.5c-0.1,0.1-0.7,0.4-1.8,0.8c-1.7,0.7-2.8,1.1-3.5,1.1c-0.4,0-0.7-0.1-0.9-0.3c-0.2-0.2-0.3-0.5-0.3-0.9
			c0-0.3,0.2-1.8,0.7-4.3c0.7-3.8,1.1-6.3,1.3-7.6C84.2,55.2,84.2,54.5,84.2,54.2z M89.6,41.2c0.2,0,0.3,0.1,0.3,0.4
			c0,0.1-0.1,0.3-0.2,0.8c0,0,0,0.2-0.1,0.4c-0.1,0.2-0.1,0.4-0.1,0.5c-0.2,0.7-0.3,1.2-0.5,1.4c-0.1,0.2-0.4,0.4-0.8,0.6
			c-0.6,0.3-1,0.5-1.2,0.6c-0.1,0.1-0.3,0.3-0.5,0.5l-0.3,0.4c-0.3,0.4-0.5,0.6-0.6,0.6c-0.1,0-0.2,0-0.2-0.1c0-0.1,0-0.2,0.1-0.3
			c0.2-0.9,0.4-1.8,0.6-2.7c0.2-1.1,0.3-1.7,0.4-1.9c0.1-0.2,0.3-0.3,0.6-0.5l1-0.4c0.1,0,0.1-0.1,0.2-0.1c0.1,0,0.1-0.1,0.2-0.1
			c0.1,0,0.1-0.1,0.2-0.1c0.1,0,0.2-0.1,0.2-0.1C89.3,41.3,89.5,41.2,89.6,41.2z"/>
		<path class="st1" d="M92.6,54.2l0.1-0.5c-0.9,0.1-1.5,0.2-1.9,0.3c-0.2,0.1-0.4,0.2-0.5,0.2c-0.2,0-0.3-0.1-0.3-0.2
			c0-0.2,0.2-0.4,0.5-0.8l1.4-1.5c0.2-0.2,0.4-0.5,0.6-0.7c0.1-0.1,0.3-0.3,0.4-0.4c0.1-0.2,0.3-0.3,0.4-0.5l1.5-1.6
			c0.9-1,1.5-1.6,1.8-1.6c0.2,0,0.3,0.1,0.3,0.3l0,0.2c-0.2,0.6-0.3,1.2-0.5,2l-0.2,1.2c0,0,0,0.2-0.1,0.4h0.4h1.1
			c1.2,0,2,0,2.4-0.1c0.4-0.1,0.7-0.2,1-0.4c0.2-0.2,0.3-0.2,0.4-0.2c0.2,0,0.3,0.1,0.3,0.3c0,0.1-0.2,0.4-0.5,0.9
			c-0.4,0.5-0.8,0.9-1.2,1.3c-0.3,0.3-0.6,0.5-0.7,0.6c-0.2,0.1-0.4,0.1-0.7,0.1c-0.1,0-0.2,0-0.4,0c-0.2,0-0.5,0-0.8,0
			c-0.7,0-1-0.1-1-0.1c-0.4,0-0.6,0.1-0.7,0.2c-0.1,0.2-0.2,0.5-0.3,1l-0.4,3l-0.5,3.2c-0.4,2.6-0.5,4.2-0.5,4.6
			c0,1.1,0.4,1.6,1.1,1.6c0.4,0,0.9-0.1,1.5-0.4c0.2-0.1,0.3-0.1,0.4-0.1c0.1,0,0.1,0,0.2,0.1c0.1,0.1,0.1,0.1,0.1,0.2
			c0,0.2-0.7,0.6-2,1.2c-1.7,0.8-2.8,1.1-3.3,1.1c-0.4,0-0.7-0.2-1-0.5c-0.2-0.3-0.4-0.7-0.4-1.1c0-0.4,0.1-0.9,0.1-1.6l0.4-3.2
			c0.4-3.1,0.8-5.2,1-6.4L92.6,54.2z"/>
		<path class="st1" d="M103.4,54.2c0-0.8-0.3-1.2-0.8-1.2c-0.3,0-0.8,0.2-1.6,0.6c-0.2,0.1-0.4,0.2-0.5,0.2c-0.2,0-0.2-0.1-0.2-0.3
			c0-0.2,0.1-0.3,0.3-0.4c0.1-0.1,0.6-0.3,1.5-0.7c2.2-0.9,3.5-1.4,4-1.4c0.6,0,0.9,0.4,0.9,1.2c0,0.5-0.2,2-0.8,4.4l-0.6,2.9
			c-0.6,2.7-0.8,4.7-0.8,5.8c0,1.4,0.4,2.1,1.2,2.1c0.2,0,0.7-0.2,1.3-0.5c0.2-0.1,0.3-0.2,0.4-0.2c0.2,0,0.3,0.1,0.3,0.2
			c0,0.2-0.1,0.4-0.4,0.5c-0.1,0.1-0.7,0.4-1.8,0.8c-1.7,0.7-2.8,1.1-3.5,1.1c-0.4,0-0.7-0.1-0.9-0.3c-0.2-0.2-0.3-0.5-0.3-0.9
			c0-0.3,0.2-1.8,0.7-4.3c0.7-3.8,1.1-6.3,1.3-7.6C103.3,55.2,103.4,54.5,103.4,54.2z M108.7,41.2c0.2,0,0.3,0.1,0.3,0.4
			c0,0.1-0.1,0.3-0.2,0.8c0,0,0,0.2-0.1,0.4c-0.1,0.2-0.1,0.4-0.1,0.5c-0.2,0.7-0.3,1.2-0.5,1.4c-0.1,0.2-0.4,0.4-0.8,0.6
			c-0.6,0.3-1,0.5-1.2,0.6c-0.1,0.1-0.3,0.3-0.5,0.5l-0.3,0.4c-0.3,0.4-0.5,0.6-0.6,0.6c-0.1,0-0.2,0-0.2-0.1c0-0.1,0-0.2,0.1-0.3
			c0.2-0.9,0.4-1.8,0.6-2.7c0.2-1.1,0.3-1.7,0.4-1.9c0.1-0.2,0.3-0.3,0.6-0.5l1-0.4c0.1,0,0.1-0.1,0.2-0.1c0.1,0,0.1-0.1,0.2-0.1
			c0.1,0,0.1-0.1,0.2-0.1c0.1,0,0.2-0.1,0.2-0.1C108.4,41.3,108.6,41.2,108.7,41.2z"/>
		<path class="st1" d="M108.6,64c0-1.5,0.3-2.9,0.9-4.4c0.6-1.5,1.5-2.9,2.5-4.2c1.1-1.3,2.2-2.4,3.4-3.2c1.2-0.8,2.4-1.2,3.5-1.2
			c1.2,0,2.2,0.5,3,1.5c0.7,1,1.1,2.3,1.1,3.9c0,1.6-0.3,3.1-0.9,4.7c-0.6,1.6-1.4,3-2.4,4.3c-1,1.3-2.1,2.3-3.4,3.1
			c-1.2,0.8-2.5,1.1-3.8,1.1c-1.2,0-2.2-0.5-2.9-1.5C109,67.1,108.6,65.8,108.6,64z M119.8,57.5c0-1.5-0.2-2.7-0.7-3.5
			c-0.5-0.8-1.2-1.2-2-1.2c-1,0-2.1,0.7-3,2.1c-0.6,0.8-1.1,2-1.6,3.5c-0.4,1.5-0.6,2.9-0.6,4.5c0,1.6,0.3,2.8,0.8,3.6
			c0.5,0.9,1.2,1.3,2.1,1.3c1.1,0,2.1-0.6,2.9-1.9c0.4-0.6,0.7-1.4,1-2.3c0.3-1,0.6-2,0.8-3C119.7,59.5,119.8,58.5,119.8,57.5z"/>
		<path class="st1" d="M124.3,69.7l0.1-0.6l0.6-2.4c0.2-0.8,0.4-1.9,0.7-3.3c0.2-1.1,0.4-2.2,0.7-3.6c0.2-1.3,0.3-2.3,0.4-2.9
			c0.1-0.8,0.1-1.5,0.1-2c0-1.2-0.4-1.7-1.2-1.7c-0.3,0-0.7,0.1-1.1,0.3c-0.2,0.1-0.4,0.2-0.5,0.2c-0.2,0-0.4-0.1-0.4-0.3
			c0-0.2,0.2-0.4,0.6-0.6c0.6-0.3,1.5-0.6,2.8-1.1c1.1-0.4,1.8-0.6,2.2-0.6c0.7,0,1,0.4,1,1.1c0,0.4-0.1,1.1-0.2,2.3
			c-0.2,1.5-0.3,2.4-0.4,2.8c0.1-0.1,0.2-0.2,0.2-0.3c0,0,0.1-0.1,0.1-0.1c0,0,0-0.1,0.1-0.1l1.1-1.3c1.1-1.3,2.2-2.4,3.4-3.1
			c1.2-0.8,2.2-1.1,3.2-1.1c0.5,0,0.9,0.1,1.3,0.3c0.3,0.3,0.5,0.6,0.5,1c0,0.3-0.1,1.2-0.4,2.5l-0.5,2.5c-0.1,0.5-0.2,1-0.3,1.5
			c-0.1,0.5-0.1,0.8-0.2,1c0,0.2-0.1,0.6-0.2,1c-0.1,0.4-0.2,1.1-0.4,2c-0.2,1.4-0.4,2.3-0.4,2.7c0,0.4,0.1,0.8,0.3,1
			c0.2,0.3,0.4,0.4,0.8,0.4c0.2,0,0.6-0.1,1.2-0.3c0.2-0.1,0.4-0.1,0.4-0.1c0.2,0,0.4,0.1,0.4,0.4c0,0.2-0.3,0.4-0.8,0.6l-1.5,0.5
			l-1.6,0.6c-1.1,0.4-1.8,0.6-2.2,0.6c-0.5,0-0.8-0.3-0.8-1c0-0.2,0-0.4,0.1-0.8l0.2-1.1c0.1-0.4,0.1-0.6,0.2-0.8
			c0-0.1,0.1-0.3,0.1-0.4s0-0.2,0-0.2c0.1-0.3,0.1-0.5,0.1-0.6c0-0.1,0.1-0.2,0.1-0.3l0.8-3.9c0.6-3.3,0.9-5.2,0.9-5.8
			c0-0.9-0.4-1.3-1.1-1.3c-1.1,0-2.4,1.2-3.7,3.5c-1.3,2.3-2.4,5.7-3.1,10.3c-0.1,0.5-0.2,0.9-0.2,1c-0.1,0.1-0.2,0.2-0.5,0.4
			C126.2,69.2,125.2,69.5,124.3,69.7z"/>
		<path class="st1" d="M140.9,68.8c0-0.1,0.1-0.6,0.4-1.4l0.3-0.9l0.3-0.8c0-0.1,0.1-0.2,0.1-0.3c0-0.1,0.1-0.2,0.1-0.3
			c0.1-0.3,0.3-0.5,0.4-0.5c0.2,0,0.3,0.1,0.3,0.3V65c-0.1,0.2-0.1,0.4-0.1,0.5c0,0.5,0.3,0.8,0.8,1.1c0.5,0.3,1.1,0.4,1.9,0.4
			c0.8,0,1.5-0.1,2.1-0.4c0.6-0.2,1-0.6,1.4-1c0.3-0.4,0.5-0.9,0.5-1.5c0-0.6-0.2-1-0.6-1.4c-0.4-0.3-1.4-0.8-3-1.6
			c-1.1-0.5-1.9-0.9-2.4-1.2c-0.5-0.3-0.8-0.5-1-0.8c-0.2-0.3-0.3-0.6-0.3-1.1c0-0.7,0.2-1.6,0.7-2.5c0.5-0.9,1.1-1.8,1.8-2.5
			s1.5-1.2,2.2-1.6c0.8-0.3,1.6-0.5,2.5-0.5c0.8,0,1.4,0.1,1.9,0.3c0.5,0.2,0.8,0.5,0.8,0.8c0,0.2-0.3,1.1-1,2.6
			c-0.2,0.5-0.4,0.8-0.5,0.8c-0.1,0-0.2-0.1-0.2-0.2v-0.1c0,0,0-0.1,0-0.1c0-0.3-0.2-0.6-0.5-0.9c-0.3-0.2-0.7-0.5-1.2-0.6
			c-0.5-0.2-1-0.2-1.6-0.2c-0.9,0-1.6,0.2-2.2,0.6c-0.6,0.4-0.9,1-0.9,1.7c0,0.4,0.1,0.8,0.4,1c0.2,0.2,0.9,0.6,2.1,1.1l1.5,0.7
			c1.5,0.7,2.4,1.2,2.8,1.5c0.4,0.4,0.6,0.8,0.6,1.5c0,0.5-0.1,1.1-0.4,1.8c-0.2,0.7-0.6,1.4-1,2.1c-0.8,1.4-1.8,2.5-3,3.3
			c-1.1,0.8-2.4,1.2-3.6,1.2C141.8,69.9,141,69.6,140.9,68.8z"/>
	</g>
</g>
</svg>
